<?xml version="1.0" encoding="iso-8859-1"?>
<!-- Generator: Adobe Illustrator 19.0.0, SVG Export Plug-In . SVG Version: 6.00 Build 0)  -->
<svg version="1.1" id="Layer_1" xmlns="http://www.w3.org/2000/svg" xmlns:xlink="http://www.w3.org/1999/xlink" x="0px" y="0px"
	 viewBox="0 0 512 512" style="enable-background:new 0 0 512 512;" xml:space="preserve">
<g>
	<g>
		<path d="M182.585,405.448c-3.876-3.935-10.225-3.967-14.158-0.092c-3.936,3.875-3.983,10.207-0.108,14.142
			c1.957,1.987,4.541,2.983,7.125,2.983c2.534,0,5.069-0.957,7.017-2.875l0.032-0.032
			C186.43,415.699,186.462,409.383,182.585,405.448z"/>
	</g>
</g>
<g>
	<g>
		<path d="M233.998,405.34c-3.935-3.876-10.282-3.809-14.157,0.125c-3.875,3.936-3.825,10.267,0.11,14.142
			c1.947,1.918,4.481,2.875,7.016,2.875c2.585,0,5.169-0.996,7.126-2.984l0.031-0.032
			C237.998,415.53,237.933,409.215,233.998,405.34z"/>
	</g>
</g>
<g>
	<g>
		<path d="M285.63,405.448c-3.876-3.935-10.225-3.967-14.158-0.092c-3.936,3.875-3.983,10.207-0.108,14.142
			c1.957,1.987,4.541,2.983,7.125,2.983c2.534,0,5.069-0.957,7.017-2.875l0.032-0.032
			C289.474,415.699,289.505,409.383,285.63,405.448z"/>
	</g>
</g>
<g>
	<g>
		<path d="M337.041,405.34c-3.935-3.876-10.282-3.809-14.157,0.125c-3.875,3.936-3.825,10.267,0.11,14.142
			c1.947,1.918,4.481,2.875,7.016,2.875c2.585,0,5.169-0.996,7.126-2.984l0.031-0.032
			C341.042,415.53,340.977,409.215,337.041,405.34z"/>
	</g>
</g>
<g>
	<g>
		<path d="M393.842,34c-27.686,0-50.21,22.524-50.21,50.209v37.059c0,13.814-10.328,25.254-23.666,27.023V67
			c0-36.944-30.056-67-67-67c-36.944,0-67,30.056-67,67v81.537h-21.342c-5.846,0-10.602-4.756-10.602-10.602V97.039
			c0-23.732-19.308-43.039-43.039-43.039c-23.731,0-43.039,19.307-43.039,43.039v73.69c0,33.529,27.278,60.807,60.808,60.807h57.214
			v39.519h-13.591c-1.065-0.173-2.151-0.173-3.216,0h-53.192c-5.522,0-10,4.477-10,10v53.79c0,5.523,4.478,10,10,10h8.385
			l23.726,158.634c0.732,4.897,4.938,8.521,9.89,8.521h190c4.951,0,9.157-3.624,9.89-8.521l23.726-158.634h8.385
			c5.522,0,10-4.477,10-10v-53.79c0-0.019-0.003-0.037-0.003-0.056c0.033-2.575-0.92-5.161-2.869-7.141
			c-2.438-2.478-5.851-3.414-9.027-2.802H319.97v-39.519h39.107c46.857,0,84.979-38.121,84.979-84.978v-62.35
			C444.052,56.524,421.527,34,393.842,34z M205.967,67c0-25.916,21.084-47,47-47s47,21.084,47,47v91.537v63v49.334h-94V67z
			 M310.68,324.846h-60.715l30.41-29.895L310.68,324.846z M255.808,291.055l-30.284,29.771l-30.216-29.771H255.808z
			 M128.753,211.537c-22.501,0-40.808-18.306-40.808-40.807V97.04c0-12.705,10.335-23.04,23.039-23.04
			c12.704,0,23.039,10.335,23.039,23.039v40.896c0,16.874,13.728,30.602,30.602,30.602h21.342v43H128.753z M125.967,291.055h20.235
			l-20.235,19.906V291.055z M170.762,294.949l30.343,29.896h-60.734L170.762,294.949z M339.352,492h-172.77l-4.355-29.122
			l15.261-12.111l18.975,15.061c3.641,2.891,8.793,2.889,12.434,0l18.925-15.02l18.93,15.024c3.643,2.892,8.795,2.89,12.436-0.001
			l18.97-15.063l18.973,15.06c3.641,2.89,8.793,2.89,12.434,0l18.926-15.02l15.218,12.08L339.352,492z M347.118,440.063
			l-11.971-9.501c-1.807-1.608-4.183-2.556-6.706-2.556c-2.685,0-5.184,1.072-7.015,2.872l-18.082,14.351l-18.975-15.061
			c-3.642-2.89-8.794-2.89-12.436,0.001l-18.97,15.063l-18.484-14.671c-1.807-1.609-4.183-2.556-6.706-2.556
			c-2.685,0-5.185,1.072-7.015,2.873l-18.082,14.35l-18.975-15.061c-3.641-2.891-8.793-2.889-12.434,0l-12.458,9.887l-5.306-35.475
			c1.281-0.336,2.517-0.93,3.625-1.799l19.354-15.16l19.358,15.165c3.623,2.838,8.712,2.836,12.333,0l19.309-15.124l19.313,15.128
			c3.624,2.838,8.715,2.836,12.335-0.001l19.354-15.167l19.357,15.163c3.623,2.838,8.712,2.836,12.333,0l19.309-15.124
			l19.313,15.128c1.109,0.869,2.344,1.462,3.625,1.798L347.118,440.063z M355.686,382.779l-19.59-15.346
			c-1.801-1.581-4.155-2.51-6.655-2.51c-2.663,0-5.144,1.055-6.97,2.829l-18.459,14.458l-19.358-15.165
			c-3.624-2.839-8.715-2.836-12.335,0.001l-19.354,15.167l-18.869-14.781c-1.801-1.581-4.155-2.51-6.655-2.51
			c-2.663,0-5.144,1.055-6.97,2.829l-18.459,14.458l-19.358-15.165c-3.623-2.838-8.712-2.836-12.333,0l-20.076,15.725l-5.672-37.925
			h80.7c0.16,0.004,0.32,0.004,0.48,0h108.783c0.182,0.01,0.364,0.026,0.547,0.026s0.365-0.016,0.547-0.026h25.73L355.686,382.779z
			 M379.966,324.845h-7h-13.435l20.435-20.106V324.845z M365.357,291.055l-30.266,29.778l-30.187-29.778H365.357z M359.073,211.537
			h-39.107v-43.136c24.387-1.847,43.666-22.281,43.666-47.132v-37.06c0-16.658,13.552-30.209,30.21-30.209
			c16.658,0,30.21,13.552,30.21,30.209v62.35h0C424.052,182.388,394.904,211.537,359.073,211.537z"/>
	</g>
</g>
<g>
	<g>
		<path d="M281.466,179.139c-5.522,0-10,4.477-10,10v0.192c0,5.523,4.478,10,10,10c5.522,0,10-4.477,10-10v-0.192
			C291.466,183.616,286.987,179.139,281.466,179.139z"/>
	</g>
</g>
<g>
	<g>
		<path d="M281.466,66.206c-5.522,0-10,4.477-10,10v78.254c0,5.523,4.478,10,10,10c5.522,0,10-4.477,10-10V76.206
			C291.466,70.683,286.988,66.206,281.466,66.206z"/>
	</g>
</g>
<g>
</g>
<g>
</g>
<g>
</g>
<g>
</g>
<g>
</g>
<g>
</g>
<g>
</g>
<g>
</g>
<g>
</g>
<g>
</g>
<g>
</g>
<g>
</g>
<g>
</g>
<g>
</g>
<g>
</g>
</svg>
