<?xml version="1.0" encoding="iso-8859-1"?>
<!-- Generator: Adobe Illustrator 18.1.1, SVG Export Plug-In . SVG Version: 6.00 Build 0)  -->
<svg version="1.1" id="Capa_1" xmlns="http://www.w3.org/2000/svg" xmlns:xlink="http://www.w3.org/1999/xlink" x="0px" y="0px"
	 viewBox="0 0 24.334 24.334" style="enable-background:new 0 0 24.334 24.334;" xml:space="preserve">
<g>
	<g>
		<path style="fill:#030104;" d="M10.295,0H0.936C0.419,0,0,0.419,0,0.936v9.359c0,0.517,0.419,0.936,0.936,0.936h9.359
			c0.517,0,0.936-0.419,0.936-0.936V0.936C11.231,0.419,10.812,0,10.295,0z"/>
		<path style="fill:#030104;" d="M23.398,0h-9.359c-0.517,0-0.936,0.419-0.936,0.936v9.359c0,0.517,0.419,0.936,0.936,0.936h9.359
			c0.517,0,0.936-0.419,0.936-0.936V0.936C24.334,0.419,23.915,0,23.398,0z M22.462,9.359h-7.487V1.872h7.487V9.359z"/>
		<path style="fill:#030104;" d="M10.295,13.103H0.936C0.419,13.103,0,13.522,0,14.039v9.359c0,0.517,0.419,0.936,0.936,0.936h9.359
			c0.517,0,0.936-0.419,0.936-0.936v-9.359C11.231,13.521,10.812,13.103,10.295,13.103z M4.42,22.462
			c0.161-0.276,0.26-0.593,0.26-0.936c0-1.034-0.838-1.872-1.872-1.872c-0.343,0-0.66,0.099-0.936,0.26v-2.391
			c0.276,0.161,0.593,0.26,0.936,0.26c1.034,0,1.872-0.838,1.872-1.872c0-0.343-0.099-0.66-0.26-0.936h2.391
			c-0.161,0.276-0.26,0.593-0.26,0.936c0,1.034,0.838,1.872,1.872,1.872c0.343,0,0.66-0.099,0.936-0.26v2.391
			c-0.276-0.161-0.593-0.26-0.936-0.26c-1.034,0-1.872,0.838-1.872,1.872c0,0.343,0.099,0.66,0.26,0.936H4.42z"/>
		<path style="fill:#030104;" d="M23.398,13.103h-9.359c-0.517,0-0.936,0.419-0.936,0.936v4.679v4.679
			c0,0.517,0.419,0.936,0.936,0.936h4.679h4.679c0.517,0,0.936-0.419,0.936-0.936v-9.359C24.334,13.521,23.915,13.103,23.398,13.103
			z M14.975,19.106l4.131-4.131h2.033l-6.164,6.164C14.975,21.139,14.975,19.106,14.975,19.106z M14.975,14.975h1.484l-1.484,1.484
			V14.975z M22.462,16.298v2.032l-4.131,4.132h-2.033L22.462,16.298z M22.462,22.462h-1.485l1.485-1.485V22.462z"/>
		<circle style="fill:#030104;" cx="5.616" cy="18.718" r="1.872"/>
	</g>
</g>
<g>
</g>
<g>
</g>
<g>
</g>
<g>
</g>
<g>
</g>
<g>
</g>
<g>
</g>
<g>
</g>
<g>
</g>
<g>
</g>
<g>
</g>
<g>
</g>
<g>
</g>
<g>
</g>
<g>
</g>
</svg>
