<?xml version="1.0" encoding="UTF-8"?>
<svg width="20px" height="13px" viewBox="0 0 20 13" version="1.1" xmlns="http://www.w3.org/2000/svg" xmlns:xlink="http://www.w3.org/1999/xlink">
    <!-- Generator: Sketch 43.2 (39069) - http://www.bohemiancoding.com/sketch -->
    <title>left-arrow</title>
    <desc>Created with Sketch.</desc>
    <defs></defs>
    <g id="Symbols" stroke="none" stroke-width="1" fill="none" fill-rule="evenodd">
        <g id="header/go-back" transform="translate(-16.000000, -16.000000)" fill-rule="nonzero" fill="#000000">
            <g id="left-arrow" transform="translate(16.000000, 16.000000)">
                <path d="M19.0866833,5.599672 L2.94842893,5.599672 L6.79925187,1.584544 C7.13660848,1.233024 7.13660848,0.662792 6.79925187,0.311324 C6.46189526,-0.040404 5.91496259,-0.040404 5.57810474,0.311324 L0.253017456,5.863364 C-0.0843391521,6.214884 -0.0843391521,6.785168 0.253017456,7.136584 L5.57810474,12.688884 C5.74673317,12.8648 5.96773067,12.952628 6.1886783,12.952628 C6.40962594,12.952628 6.63062344,12.8648 6.79925187,12.688884 C7.13660848,12.337364 7.13660848,11.767132 6.79925187,11.415716 L2.94842893,7.40038 L19.0866833,7.40038 C19.563591,7.40038 19.9503242,6.997224 19.9503242,6.5 C19.9503242,6.002776 19.5636409,5.599672 19.0866833,5.599672 Z" id="Shape"></path>
            </g>
        </g>
    </g>
</svg>