<?xml version="1.0" encoding="UTF-8"?>
<svg width="24px" height="16px" viewBox="0 0 24 16" version="1.1" xmlns="http://www.w3.org/2000/svg" xmlns:xlink="http://www.w3.org/1999/xlink">
    <!-- Generator: Sketch 43.2 (39069) - http://www.bohemiancoding.com/sketch -->
    <title>left-arrow</title>
    <desc>Created with Sketch.</desc>
    <defs></defs>
    <g id="Page-1" stroke="none" stroke-width="1" fill="none" fill-rule="evenodd">
        <g id="Add-plants" transform="translate(-316.000000, -348.000000)" fill-rule="nonzero" fill="#000000">
            <g id="input" transform="translate(14.000000, 324.000000)">
                <g id="left-arrow" transform="translate(314.000000, 32.000000) scale(-1, 1) translate(-314.000000, -32.000000) translate(302.000000, 24.000000)">
                    <path d="M22.90402,6.833408 L3.53811471,6.833408 L8.15910224,1.891712 C8.56393017,1.459072 8.56393017,0.757248 8.15910224,0.324672 C7.75427431,-0.108224 7.09795511,-0.108224 6.69372569,0.324672 L0.303620948,7.157952 C-0.101206983,7.590592 -0.101206983,8.29248 0.303620948,8.724992 L6.69372569,15.558592 C6.8960798,15.775104 7.16127681,15.8832 7.42641397,15.8832 C7.69155112,15.8832 7.95674813,15.775104 8.15910224,15.558592 C8.56393017,15.125952 8.56393017,14.424128 8.15910224,13.991616 L3.53811471,9.049664 L22.90402,9.049664 C23.4763092,9.049664 23.940389,8.553472 23.940389,7.941504 C23.940389,7.329536 23.4763691,6.833408 22.90402,6.833408 Z" id="Shape"></path>
                </g>
            </g>
        </g>
    </g>
</svg>