<?xml version='1.0' encoding='utf-8'?>
<svg version="1.1" xmlns="http://www.w3.org/2000/svg" viewBox="0 0 129 129" xmlns:xlink="http://www.w3.org/1999/xlink" enable-background="new 0 0 129 129">
  <g>
    <path d="m40.5,117.3c0.2,0.1 0.3,0.2 0.5,0.2 7.2,3.2 15.1,5 23.5,5 23.4,0 43.6-14 52.8-34 0.1-0.2 0.2-0.3 0.3-0.5 3.2-7.2 5-15.2 5-23.6 0-23.5-14-43.7-34.1-52.8-0.2-0.1-0.3-0.2-0.5-0.3-7.2-3.2-15.1-5-23.4-5-23.6,0.1-43.8,14.2-53,34.4-0.1,0.2-0.2,0.3-0.2,0.5-3.2,7.2-5,15.1-5,23.4 0.1,23.4 14.1,43.6 34.1,52.7zm24-2.9c-5.1,0-10.1-0.8-14.7-2.2l41.7-41.7 17.3,17.1c-8.5,15.9-25.1,26.8-44.3,26.8zm-.1-28.5l-21.4-21.4 21.1-21.1 21.5,21.3-21.2,21.2zm50-21.4c0,5.2-0.8,10.2-2.3,14.9l-42.2-41.7 17.5-17.4c16,8.3 27,25 27,44.2zm-49.9-49.9c5.1-1.77636e-15 10.1,0.8 14.7,2.2l-42,41.9-17-17c8.3-16.1 25-27.1 44.3-27.1zm-47.7,35.3l17.5,17.5c0,0 0,0 0,0l24.3,24.3-17.1,17.1c-16-8.3-27-25-27-44.2 0.1-5.2 0.9-10.1 2.3-14.7z"/>
  </g>
</svg>
