<?xml version="1.0" encoding="UTF-8"?>
<svg width="33px" height="30px" viewBox="0 0 33 30" version="1.1" xmlns="http://www.w3.org/2000/svg" xmlns:xlink="http://www.w3.org/1999/xlink">
    <!-- Generator: Sketch 63.1 (92452) - https://sketch.com -->
    <title>50x44</title>
    <desc>Created with Sketch.</desc>
    <g id="Symbols" stroke="none" stroke-width="1" fill="none" fill-rule="evenodd">
        <g id="Logo/Logo/Green" transform="translate(1.000000, 1.000000)">
            <g id="50x44">
                <path d="M20.3383403,5.44671739 C23.3054332,3.44516852 26.4657265,2.28346061 28.5315447,3.49003546 C32.7238987,5.93874512 30.8203138,17.2135477 28.3754963,21.497673 C26.0537563,25.5656819 21.0855512,27.1122658 17.0007399,25.1613182 C20.7021233,24.1121516 23.4186936,20.6448926 23.4186936,16.5288832 C23.4186936,13.724927 22.1579967,9.06383337 20.1841916,5.55179998 Z" id="Combined-Shape" stroke="#0A3E2B" stroke-width="2" stroke-linejoin="bevel"></path>
                <path d="M2.26794224,9.99301049 C3.48435831,9.29015751 5.16309177,9.5821495 6.8992279,10.3975211 C6.33461114,12.3587133 6.01849143,14.2270059 6.01849143,15.6346215 C6.01849143,20.2549237 9.42433133,24.0706028 13.8366588,24.6561559 C13.2898381,25.3664553 12.5960539,25.9852178 11.7693326,26.4629027 C8.420627,28.3978057 4.15948642,27.2849553 2.25121823,23.9771274 C0.342950744,20.6692992 -1.08076316,11.9279139 2.26794224,9.99301049 Z" id="Combined-Shape" stroke="#0A3E2B" stroke-width="2" stroke-linecap="round" stroke-linejoin="bevel" transform="translate(7.045380, 18.505063) rotate(1.000000) translate(-7.045380, -18.505063) "></path>
                <path d="M14,0 C18.9708125,0 23,10.892057 23,15.9149191 C23,20.7996594 19.1893601,24.7845244 14.4078715,24.9999875 L14.4075099,21.0753676 L18.3160163,16.264162 L18.3360878,16.237307 C18.4552395,16.0636195 18.4233055,15.8243868 18.2575011,15.6888642 C18.0829701,15.5462087 17.8261977,15.5724882 17.6839837,15.747561 L17.6839837,15.747561 L14.4075099,19.7807622 L14.4075099,15.0253564 L17.2770837,11.2477844 L17.2962719,11.2202874 C17.4097162,11.0427962 17.3700251,10.8047348 17.1999049,10.6747056 C17.020831,10.5378328 16.765049,10.5724941 16.6285998,10.752124 L16.6285998,10.752124 L14.4075099,13.6761616 L14.4076433,5.00183172 L14.4065252,4.97131437 C14.3909636,4.75973268 14.2149018,4.59292285 14,4.59292285 C13.7748648,4.59292285 13.5923567,4.77599759 13.5923567,5.00183172 L13.5923567,5.00183172 L13.5922233,13.7458806 L11.3180909,10.752124 L11.296753,10.7262701 C11.1562552,10.5694568 10.9169059,10.5446764 10.7467857,10.6747056 C10.5677118,10.8115785 10.5331577,11.0681546 10.669607,11.2477844 L10.669607,11.2477844 L13.5922233,15.0952799 L13.5922233,19.7948695 L10.2914119,15.7312587 L10.2692453,15.7061162 C10.1237264,15.5539802 9.88369904,15.5370391 9.71789463,15.6725618 C9.54336367,15.8152172 9.51716553,16.0727868 9.65937944,16.2478596 L9.65937944,16.2478596 L13.5922233,21.0892705 L13.5921285,24.9999875 C8.8106399,24.7845244 5,20.7996594 5,15.9149191 C5,10.892057 9.0291875,0 14,0 Z" id="Combined-Shape" fill="#0A3E2B"></path>
                <path d="M14,25 C18.9708125,25 23,20.9301136 23,15.9090909 C23,10.8880682 18.9708125,0 14,0 C9.0291875,0 5,10.8880682 5,15.9090909 C5,20.9301136 9.0291875,25 14,25" id="Fill-3-Copy-2" stroke="#0A3E2B" stroke-width="1.5"></path>
            </g>
        </g>
    </g>
</svg>