<?xml version="1.0" encoding="UTF-8"?>
<svg width="3041px" height="771px" viewBox="0 0 3041 771" version="1.1" xmlns="http://www.w3.org/2000/svg" xmlns:xlink="http://www.w3.org/1999/xlink">
    <!-- Generator: Sketch 55.2 (78181) - https://sketchapp.com -->
    <title>Detailed</title>
    <desc>Created with Sketch.</desc>
    <g id="Detailed" stroke="none" stroke-width="1" fill="none" fill-rule="evenodd">
        <g id="Group" transform="translate(66.000000, 82.000000)">
            <path d="M414.999268,0 C427.149712,0 437,10.0741578 437,22.5007482 C437,34.9258422 427.149712,45 414.999268,45 C402.850288,45 393,34.9258422 393,22.5007482 C393,10.0741578 402.850288,0 414.999268,0" id="Fill-2" fill="#F8C559"></path>
            <path d="M235.218088,604.83484 C225.654167,602.987191 209.062674,590.893488 214.70799,558.352468 C216.768082,546.471524 214.229517,545.497309 200.403643,542.322712 C186.894535,539.222021 166.480796,534.534591 165.01215,505.648557 C164.755192,500.587118 168.605127,496.273697 173.611372,496.012787 C178.628693,495.747397 182.885108,499.645377 183.140958,504.706815 C183.871959,519.074807 190.56615,521.242715 204.423037,524.425151 C216.868872,527.281728 237.696844,532.06546 232.587594,561.523705 C228.713292,583.854505 238.524203,586.788347 238.624993,586.807384 C243.548169,587.759203 246.776754,592.56645 245.83753,597.543905 C244.894982,602.528078 240.131296,605.786659 235.218088,604.83484" id="Fill-9" fill="#EC913D" transform="translate(205.500000, 550.500000) rotate(-300.000000) translate(-205.500000, -550.500000) "></path>
            <path d="M501,464 C509.836763,464 517,471.163237 517,480 C517,488.836763 509.836763,496 501,496 C492.163237,496 485,488.836763 485,480 C485,471.163237 492.163237,464 501,464" id="Fill-10" fill="#5CB3D5"></path>
            <path d="M377.999248,537 C386.836427,537 394,544.163237 394,553 C394,561.836763 386.836427,569 377.999248,569 C369.163573,569 362,561.836763 362,553 C362,544.163237 369.163573,537 377.999248,537" id="Fill-11" fill="#41B59E"></path>
            <path d="M95,271 C103.835933,271 111,278.164067 111,287 C111,295.835933 103.835933,303 95,303 C86.1625634,303 79,295.835933 79,287 C79,278.164067 86.1625634,271 95,271" id="Fill-12" fill="#F8C559"></path>
            <path d="M146.203547,543.120728 L123.638996,534.14784 C117.38572,531.660988 114.364892,524.662047 116.893922,518.511595 C119.422952,512.362609 126.539109,509.392162 132.795366,511.879014 L155.362898,520.851903 C161.616174,523.338754 164.634021,530.337696 162.106481,536.488147 C159.583412,542.629806 152.467255,545.610511 146.203547,543.120728" id="Fill-14" fill="#DE4A4D"></path>
            <path d="M513.699236,497.377457 C510.20753,494.957864 505.403612,495.808648 502.967319,499.280035 C497.3281,507.31761 496.232238,516.881922 495.266187,525.318711 C493.60123,539.862449 492.979458,545.309339 477.683489,544.334209 C460.841085,543.264652 448.256079,546.852905 440.272751,554.989582 C430.437277,565.014814 430.786259,578.844267 440.057342,578.99853 C447.765999,579.12568 448.289002,570.96189 448.289002,570.96189 C448.289002,570.96189 449.882469,557.93741 476.700505,559.628694 C518.930211,562.301653 505.435594,522.555064 515.611585,508.044984 C518.049759,504.573597 517.192824,499.797985 513.699236,497.377457" id="Fill-20" fill="#EC913D" transform="translate(475.000000, 537.500000) rotate(-270.000000) translate(-475.000000, -537.500000) "></path>
            <path d="M434,441 C512.980688,441 577,377.021386 577,298.090909 C577,219.160432 512.980688,48 434,48 C355.019313,48 291,219.160432 291,298.090909 C291,377.021386 355.019313,441 434,441" id="Fill-3" fill="#F8C559" transform="translate(434.000000, 244.500000) rotate(-330.000000) translate(-434.000000, -244.500000) "></path>
            <path d="M181.5,479 C240.873594,479 289,430.812545 289,371.363636 C289,311.914727 240.873594,183 181.5,183 C122.126406,183 74,311.914727 74,371.363636 C74,430.812545 122.126406,479 181.5,479" id="Fill-3" fill="#F8C559" transform="translate(181.500000, 331.000000) rotate(-45.000000) translate(-181.500000, -331.000000) "></path>
            <path d="M318.5,488 C405.489219,488 476,417.672364 476,330.909091 C476,244.145818 405.489219,56 318.5,56 C231.510781,56 161,244.145818 161,330.909091 C161,417.672364 231.510781,488 318.5,488" id="Fill-3" fill="#41B59E"></path>
            <path d="M316.932709,63.9940358 C393.324537,63.9940358 461.925424,241.778045 461.925424,325.740491 C461.925424,402.655171 402.043432,465.639124 326.59889,470.660778 L326.59889,444.999931 L402.304419,331.11114 C405.271937,326.651756 404.07333,320.641282 399.626887,317.665128 C395.170778,314.698668 389.168079,315.891069 386.219894,320.350453 L326.59889,410.042238 L326.59889,367.435732 L402.304419,253.546941 C405.271937,249.087557 404.07333,243.077083 399.626887,240.100928 C395.170778,237.134469 389.168079,238.326869 386.219894,242.786253 L326.59889,332.478038 L326.59889,289.231707 L364.248665,213.722702 C366.636211,208.933712 364.702975,203.107429 359.927882,200.712934 C355.143122,198.337827 349.35308,200.257301 346.955867,205.046292 L326.608556,245.869045 L326.608556,131.854228 C326.608556,126.493273 322.278107,122.159915 316.942375,122.159915 C311.606643,122.159915 307.276194,126.493273 307.276194,131.854228 L307.276194,245.898128 L286.928883,205.075375 C284.541336,200.296079 278.741628,198.357216 273.956868,200.742017 C269.181775,203.136512 267.248538,208.962795 269.636085,213.751785 L307.28586,289.26079 L307.28586,332.507121 L247.664856,242.815336 C244.697338,238.355952 238.704306,237.163551 234.257863,240.130011 C229.821086,243.106165 228.622479,249.11664 231.580331,253.576024 L307.28586,367.464814 L307.28586,410.071321 L247.664856,320.379536 C244.697338,315.920151 238.704306,314.727751 234.257863,317.694211 C229.821086,320.670365 228.622479,326.680839 231.580331,331.140223 L307.28586,445.029014 L307.28586,470.689861 C231.841317,465.668207 171.959322,402.684254 171.959322,325.769574 C171.939994,241.778045 240.54088,63.9940358 316.932709,63.9940358 Z M316.942373,510.912525 C303.473119,510.912525 292.226292,501.376554 289.061017,488.5666 C298.143143,490.174008 307.427307,491.189732 316.942373,491.189732 C326.46706,491.189732 335.741603,490.174008 344.823729,488.5666 C341.658454,501.376554 330.411627,510.912525 316.942373,510.912525 Z M269.369235,483.495655 C270.511059,505.772172 286.564324,524.163138 307.823529,528.504103 L307.823529,597.310345 C307.823529,602.668724 312.158588,607 317.5,607 C322.841412,607 327.176471,602.668724 327.176471,597.310345 L327.176471,528.504103 C348.435676,524.163138 364.488941,505.772172 365.630765,483.495655 C432.920941,462.827621 482,400.067724 482,326 C482,242.194172 412.532618,45 317.5,45 C222.467382,45 153,242.194172 153,326 C153,400.067724 202.079059,462.827621 269.369235,483.495655 L269.369235,483.495655 Z" id="Fill-8" fill="#1A1E1F"></path>
            <path d="M141.951868,166.83181 C132.151801,164.950259 115.150641,152.634653 120.935348,119.49655 C123.046306,107.397607 120.445061,106.405516 106.277807,103.17267 C92.4351403,100.015085 71.5173588,95.2416476 70.0124498,65.8255944 C69.7491474,60.6712852 73.6941428,56.278719 78.8239986,56.0130212 C83.9652036,55.7427621 88.326716,59.7122644 88.5888834,64.8665736 C89.3379331,79.4981978 96.1974129,81.7058842 110.396445,84.9467132 C123.149585,87.855705 144.491828,92.7272114 139.256424,122.725975 C135.28646,145.466514 145.339616,148.454189 145.442894,148.473574 C150.48763,149.442858 153.795933,154.338312 152.833518,159.407096 C151.867698,164.482722 146.98639,167.801094 141.951868,166.83181" id="Fill-9" fill="#EC913D"></path>
            <path d="M174,89 C180.627573,89 186,94.3724274 186,101 C186,107.627573 180.627573,113 174,113 C167.372427,113 162,107.627573 162,101 C162,94.3724274 167.372427,89 174,89" id="Fill-10" fill="#5CB3D5"></path>
            <path d="M601.127371,103.951849 C594.346882,113.635675 593.029239,125.158942 591.867677,135.323749 C589.865765,152.846324 589.118158,159.408842 570.726575,158.233987 C550.47559,156.945364 535.343619,161.26856 525.744618,171.071786 C513.91863,183.150378 514.33824,199.81237 525.485613,199.998229 C534.754355,200.151422 535.383205,190.31553 535.383205,190.31553 C535.383205,190.31553 537.299159,174.623385 569.544655,176.661078 C620.320849,179.88151 604.095178,131.994054 616.330596,114.512029 C619.262211,110.329635 618.231848,104.575886 614.031225,101.659587 C609.832863,98.7444139 604.056723,99.7694553 601.127371,103.951849 Z" id="Fill-20" fill="#EC913D"></path>
        </g>
        <path d="M857.4,503.8 C843.266596,503.8 836.2,499.933372 836.2,492.2 L836.2,233.8 C836.2,226.066628 843.266596,222.2 857.4,222.2 L867.8,222.2 C881.933404,222.2 889,226.066628 889,233.8 L889,337.4 L1009.8,337.4 L1009.8,233.8 C1009.8,226.066628 1016.8666,222.2 1031,222.2 L1041.4,222.2 C1055.5334,222.2 1062.6,226.066628 1062.6,233.8 L1062.6,492.2 C1062.6,499.933372 1055.5334,503.8 1041.4,503.8 L1031,503.8 C1016.8666,503.8 1009.8,499.933372 1009.8,492.2 L1009.8,382.6 L889,382.6 L889,492.2 C889,499.933372 881.933404,503.8 867.8,503.8 L857.4,503.8 Z M1161.2,505.8 C1140.93323,505.8 1125.46672,500.533386 1114.8,490 C1104.13328,479.466614 1098.8,465.133424 1098.8,447 C1098.8,397.933088 1139.1996,373.266668 1220,373 L1220,357.8 C1220,340.199912 1208.13345,331.4 1184.4,331.4 C1174.53328,331.4 1165.8667,332.533322 1158.4,334.8 C1150.9333,337.066678 1144.40003,339.466654 1138.8,342 C1133.19997,344.533346 1130,345.8 1129.2,345.8 C1125.73332,345.8 1121.80002,342.066704 1117.4,334.6 C1112.99998,327.133296 1110.8,321.533352 1110.8,317.8 C1110.8,313.533312 1114.19997,309.333354 1121,305.2 C1127.80003,301.066646 1137.06661,297.66668 1148.8,295 C1160.53339,292.33332 1173.19993,291 1186.8,291 C1215.06681,291 1236.0666,296.799942 1249.8,308.4 C1263.5334,320.000058 1270.4,335.933232 1270.4,356.2 L1270.4,436.6 C1270.4,454.733424 1271.19999,467.999958 1272.8,476.4 C1274.40001,484.800042 1275.2,489.933324 1275.2,491.8 C1275.2,495.533352 1270.80004,498.39999 1262,500.4 C1253.19996,502.40001 1245.33337,503.4 1238.4,503.4 C1234.13331,503.4 1231.06668,501.466686 1229.2,497.6 C1227.33332,493.733314 1225.93334,489.533356 1225,485 C1224.06666,480.466644 1223.46667,477.400008 1223.2,475.8 C1217.59997,483.000036 1209.66672,489.799968 1199.4,496.2 C1189.13328,502.600032 1176.40008,505.8 1161.2,505.8 Z M1174.8,465.4 C1184.13338,465.4 1192.66663,462.933358 1200.4,458 C1208.13337,453.066642 1214.66664,446.733372 1220,439 L1220,408.6 C1198.13322,408.6 1181.00006,411.066642 1168.6,416 C1156.19994,420.933358 1150,429.666604 1150,442.2 C1150,449.400036 1152.13331,455.066646 1156.4,459.2 C1160.66669,463.333354 1166.79996,465.4 1174.8,465.4 Z M1335.8,585.8 C1328.3333,585.8 1322.93335,584.866676 1319.6,583 C1316.26665,581.133324 1314.6,578.20002 1314.6,574.2 L1314.6,361 C1314.6,343.133244 1313.8,330.066708 1312.2,321.8 C1310.59999,313.533292 1309.8,308.466676 1309.8,306.6 C1309.8,302.866648 1314.19996,300.00001 1323,298 C1331.80004,296 1339.5333,295 1346.2,295 C1350.73336,295 1353.93332,296.866648 1355.8,300.6 C1357.66668,304.333352 1359.06666,308.266646 1360,312.4 C1360.93334,316.533354 1361.53333,319.399992 1361.8,321 C1368.4667,311.66662 1376.66662,304.33336 1386.4,299 C1396.13338,293.66664 1406.86661,291 1418.6,291 C1433.80008,291 1447.13328,295.33329 1458.6,304 C1470.06672,312.66671 1478.9333,325.133252 1485.2,341.4 C1491.4667,357.666748 1494.6,376.733224 1494.6,398.6 C1494.6,431.9335 1487.20007,458.133238 1472.4,477.2 C1457.59993,496.266762 1437.2668,505.8 1411.4,505.8 C1393.79991,505.8 1378.20007,500.733384 1364.6,490.6 L1364.6,574.2 C1364.6,581.933372 1357.5334,585.8 1343.4,585.8 L1335.8,585.8 Z M1400.2,465 C1428.73348,465 1443,443.133552 1443,399.4 C1443,377.533224 1439.80003,360.93339 1433.4,349.6 C1426.99997,338.26661 1417.5334,332.6 1405,332.6 C1397.26663,332.6 1390.00003,334.866644 1383.2,339.4 C1376.39997,343.933356 1370.20003,350.066628 1364.6,357.8 L1364.6,453.8 C1375.26672,461.266704 1387.13327,465 1400.2,465 Z M1550,585.8 C1542.5333,585.8 1537.13335,584.866676 1533.8,583 C1530.46665,581.133324 1528.8,578.20002 1528.8,574.2 L1528.8,361 C1528.8,343.133244 1528,330.066708 1526.4,321.8 C1524.79999,313.533292 1524,308.466676 1524,306.6 C1524,302.866648 1528.39996,300.00001 1537.2,298 C1546.00004,296 1553.7333,295 1560.4,295 C1564.93336,295 1568.13332,296.866648 1570,300.6 C1571.86668,304.333352 1573.26666,308.266646 1574.2,312.4 C1575.13334,316.533354 1575.73333,319.399992 1576,321 C1582.6667,311.66662 1590.86662,304.33336 1600.6,299 C1610.33338,293.66664 1621.06661,291 1632.8,291 C1648.00008,291 1661.33328,295.33329 1672.8,304 C1684.26672,312.66671 1693.1333,325.133252 1699.4,341.4 C1705.6667,357.666748 1708.8,376.733224 1708.8,398.6 C1708.8,431.9335 1701.40007,458.133238 1686.6,477.2 C1671.79993,496.266762 1651.4668,505.8 1625.6,505.8 C1607.99991,505.8 1592.40007,500.733384 1578.8,490.6 L1578.8,574.2 C1578.8,581.933372 1571.7334,585.8 1557.6,585.8 L1550,585.8 Z M1614.4,465 C1642.93348,465 1657.2,443.133552 1657.2,399.4 C1657.2,377.533224 1654.00003,360.93339 1647.6,349.6 C1641.19997,338.26661 1631.7334,332.6 1619.2,332.6 C1611.46663,332.6 1604.20003,334.866644 1597.4,339.4 C1590.59997,343.933356 1584.40003,350.066628 1578.8,357.8 L1578.8,453.8 C1589.46672,461.266704 1601.33327,465 1614.4,465 Z M1880.2,293 C1894.3334,293 1901.4,295.66664 1901.4,301 C1901.4,302.600008 1901,304.866652 1900.2,307.8 L1804.6,577.4 C1802.46666,583.000028 1795.40006,585.8 1783.4,585.8 L1777,585.8 C1770.3333,585.8 1765.26668,585.066674 1761.8,583.6 C1758.33332,582.133326 1756.6,580.200012 1756.6,577.8 C1756.6,576.199992 1757.26666,573.933348 1758.6,571 L1786.6,498.2 L1719,307.8 C1718.73333,307 1718.46667,306 1718.2,304.8 C1717.93333,303.599994 1717.8,302.33334 1717.8,301 C1717.8,295.66664 1725.13326,293 1739.8,293 L1749,293 C1760.73339,293 1767.53332,295.533308 1769.4,300.6 L1799,386.6 C1801.93335,395.93338 1805.79998,411.133228 1810.6,432.2 L1811.8,432.2 L1815.4,417.8 C1818.60002,404.4666 1821.39999,394.066704 1823.8,386.6 L1853,300.6 C1854.86668,295.533308 1861.66661,293 1873.4,293 L1880.2,293 Z M1941.2,503.8 C1933.7333,503.8 1928.33335,502.866676 1925,501 C1921.66665,499.133324 1920,496.20002 1920,492.2 L1920,237.8 C1920,232.733308 1921.13332,229.000012 1923.4,226.6 C1925.66668,224.199988 1929.33331,223 1934.4,223 L2017.6,223 C2042.13346,223 2063.73324,228.866608 2082.4,240.6 C2101.06676,252.333392 2110.4,274.599836 2110.4,307.4 C2110.4,330.333448 2105.00005,348.199936 2094.2,361 C2083.39995,373.800064 2071.26673,382.399978 2057.8,386.8 C2044.33327,391.200022 2032.26672,393.4 2021.6,393.4 L1972.4,393.4 L1972.4,492.2 C1972.4,499.933372 1965.3334,503.8 1951.2,503.8 L1941.2,503.8 Z M2017.2,348.2 C2027.60005,348.2 2036.79996,345.20003 2044.8,339.2 C2052.80004,333.19997 2056.8,322.600076 2056.8,307.4 C2056.8,292.73326 2052.66671,282.466696 2044.4,276.6 C2036.13329,270.733304 2026.40006,267.8 2015.2,267.8 L1972.4,267.8 L1972.4,348.2 L2017.2,348.2 Z M2187,505.8 C2169.93325,505.8 2156.33338,500.933382 2146.2,491.2 C2136.06662,481.466618 2131,465.93344 2131,444.6 L2131,213 C2131,205.533296 2138.0666,201.8 2152.2,201.8 L2159.8,201.8 C2173.9334,201.8 2181,205.533296 2181,213 L2181,443.8 C2181,451.533372 2182.46665,457.06665 2185.4,460.4 C2188.33335,463.73335 2192.59997,465.4 2198.2,465.4 C2200.86668,465.4 2203.39999,465.133336 2205.8,464.6 C2208.20001,464.066664 2209.93333,463.8 2211,463.8 C2214.20002,463.8 2216.86666,467.199966 2219,474 C2221.13334,480.800034 2222.2,485.799984 2222.2,489 C2222.2,500.200056 2210.46678,505.8 2187,505.8 Z M2286.8,505.8 C2266.53323,505.8 2251.06672,500.533386 2240.4,490 C2229.73328,479.466614 2224.4,465.133424 2224.4,447 C2224.4,397.933088 2264.7996,373.266668 2345.6,373 L2345.6,357.8 C2345.6,340.199912 2333.73345,331.4 2310,331.4 C2300.13328,331.4 2291.4667,332.533322 2284,334.8 C2276.5333,337.066678 2270.00003,339.466654 2264.4,342 C2258.79997,344.533346 2255.6,345.8 2254.8,345.8 C2251.33332,345.8 2247.40002,342.066704 2243,334.6 C2238.59998,327.133296 2236.4,321.533352 2236.4,317.8 C2236.4,313.533312 2239.79997,309.333354 2246.6,305.2 C2253.40003,301.066646 2262.66661,297.66668 2274.4,295 C2286.13339,292.33332 2298.79993,291 2312.4,291 C2340.66681,291 2361.6666,296.799942 2375.4,308.4 C2389.1334,320.000058 2396,335.933232 2396,356.2 L2396,436.6 C2396,454.733424 2396.79999,467.999958 2398.4,476.4 C2400.00001,484.800042 2400.8,489.933324 2400.8,491.8 C2400.8,495.533352 2396.40004,498.39999 2387.6,500.4 C2378.79996,502.40001 2370.93337,503.4 2364,503.4 C2359.73331,503.4 2356.66668,501.466686 2354.8,497.6 C2352.93332,493.733314 2351.53334,489.533356 2350.6,485 C2349.66666,480.466644 2349.06667,477.400008 2348.8,475.8 C2343.19997,483.000036 2335.26672,489.799968 2325,496.2 C2314.73328,502.600032 2302.00008,505.8 2286.8,505.8 Z M2300.4,465.4 C2309.73338,465.4 2318.26663,462.933358 2326,458 C2333.73337,453.066642 2340.26664,446.733372 2345.6,439 L2345.6,408.6 C2323.73322,408.6 2306.60006,411.066642 2294.2,416 C2281.79994,420.933358 2275.6,429.666604 2275.6,442.2 C2275.6,449.400036 2277.73331,455.066646 2282,459.2 C2286.26669,463.333354 2292.39996,465.4 2300.4,465.4 Z M2459,503.8 C2444.8666,503.8 2437.8,499.933372 2437.8,492.2 L2437.8,361 C2437.8,343.133244 2437,330.066708 2435.4,321.8 C2433.79999,313.533292 2433,308.466676 2433,306.6 C2433,302.866648 2437.39996,300.00001 2446.2,298 C2455.00004,296 2462.86663,295 2469.8,295 C2474.33336,295 2477.53332,296.933314 2479.4,300.8 C2481.26668,304.666686 2482.66666,308.666646 2483.6,312.8 C2484.53334,316.933354 2485.13333,319.66666 2485.4,321 C2492.33337,312.199956 2501.19995,305.000028 2512,299.4 C2522.80005,293.799972 2534.06661,291 2545.8,291 C2586.33354,291 2606.6,312.599784 2606.6,355.8 L2606.6,492.2 C2606.6,496.20002 2604.93335,499.133324 2601.6,501 C2598.26665,502.866676 2592.8667,503.8 2585.4,503.8 L2577.8,503.8 C2563.6666,503.8 2556.6,499.933372 2556.6,492.2 L2556.6,362.6 C2556.6,342.866568 2546.6001,333 2526.6,333 C2518.86663,333 2511.60003,335.399976 2504.8,340.2 C2497.99997,345.000024 2492.46669,350.866632 2488.2,357.8 L2488.2,492.2 C2488.2,499.933372 2481.1334,503.8 2467,503.8 L2459,503.8 Z M2708.8,505.8 C2691.73325,505.8 2678.06672,500.866716 2667.8,491 C2657.53328,481.133284 2652.4,465.666772 2652.4,444.6 L2652.4,334.2 L2641.6,334.2 C2637.86665,334.2 2635.13334,332.86668 2633.4,330.2 C2631.66666,327.53332 2630.8,323.133364 2630.8,317 L2630.8,311 C2630.8,304.866636 2631.66666,300.46668 2633.4,297.8 C2635.13334,295.13332 2637.86665,293.8 2641.6,293.8 L2652.4,293.8 L2657.6,254.6 C2658.93334,246.866628 2665.06661,243 2676,243 L2685.6,243 C2697.06672,243 2702.8,246.866628 2702.8,254.6 L2702.8,293.8 L2727.2,293.8 C2730.93335,293.8 2733.66666,295.13332 2735.4,297.8 C2737.13334,300.46668 2738,304.866636 2738,311 L2738,317 C2738,323.133364 2737.13334,327.53332 2735.4,330.2 C2733.66666,332.86668 2730.93335,334.2 2727.2,334.2 L2702.8,334.2 L2702.8,443.8 C2702.8,451.80004 2704.19999,457.399984 2707,460.6 C2709.80001,463.800016 2713.99997,465.4 2719.6,465.4 C2722.26668,465.4 2724.79999,465.133336 2727.2,464.6 C2729.60001,464.066664 2731.46666,463.8 2732.8,463.8 C2736.00002,463.8 2738.66666,467.199966 2740.8,474 C2742.93334,480.800034 2744,485.799984 2744,489 C2744,500.200056 2732.26678,505.8 2708.8,505.8 Z M2817.8,506.2 C2807.13328,506.2 2796.73338,505.000012 2786.6,502.6 C2776.46662,500.199988 2768.20003,496.933354 2761.8,492.8 C2755.39997,488.666646 2752.2,484.333356 2752.2,479.8 C2752.2,475.266644 2754.46664,469.600034 2759,462.8 C2763.53336,455.999966 2767.53332,452.6 2771,452.6 C2772.06667,452.6 2774.99998,453.866654 2779.8,456.4 C2784.60002,458.933346 2789.73331,461.133324 2795.2,463 C2800.66669,464.866676 2806.86663,465.8 2813.8,465.8 C2833.0001,465.8 2842.6,458.333408 2842.6,443.4 C2842.6,436.199964 2839.73336,430.60002 2834,426.6 C2828.26664,422.59998 2819.00006,418.333356 2806.2,413.8 C2790.46659,408.199972 2778.33338,401.000044 2769.8,392.2 C2761.26662,383.399956 2757,370.600084 2757,353.8 C2757,334.599904 2763.4666,319.266724 2776.4,307.8 C2789.3334,296.333276 2806.46656,290.6 2827.8,290.6 C2841.66674,290.6 2854.73327,292.533314 2867,296.4 C2879.26673,300.266686 2885.4,305.399968 2885.4,311.8 C2885.4,316.333356 2883.53335,322.133298 2879.8,329.2 C2876.06665,336.266702 2872.60002,339.8 2869.4,339.8 C2868.86666,339.8 2865.2667,338.333348 2858.6,335.4 C2851.9333,332.466652 2843.93338,331 2834.6,331 C2826.59996,331 2820.20002,332.533318 2815.4,335.6 C2810.59998,338.666682 2808.2,342.999972 2808.2,348.6 C2808.2,354.200028 2809.93332,358.866648 2813.4,362.6 C2816.86668,366.333352 2820.79998,369.266656 2825.2,371.4 C2829.60002,373.533344 2837.39994,376.866644 2848.6,381.4 C2864.06674,387.533364 2875.39996,394.866624 2882.6,403.4 C2889.80004,411.933376 2893.4,424.19992 2893.4,440.2 C2893.4,459.933432 2886.5334,475.866606 2872.8,488 C2859.0666,500.133394 2840.73345,506.2 2817.8,506.2 Z" id="HappyPlants" fill="#ffffff" fill-rule="nonzero"></path>
    </g>
</svg>