<?xml version="1.0" encoding="UTF-8"?>
<svg width="360px" height="321px" viewBox="0 0 360 321" version="1.1"
  xmlns="http://www.w3.org/2000/svg"
  xmlns:xlink="http://www.w3.org/1999/xlink">
  <defs>
    <polygon id="path-1" points="0 0 360 0 360 322 0 322"></polygon>
  </defs>
  <g id="Mobile" stroke="none" stroke-width="1" fill="none" fill-rule="evenodd">
    <g id="2.-Welcome" transform="translate(0.000000, -399.000000)">
      <g id="Background" transform="translate(0.000000, 398.000000)">
        <g id="Fill-42-+-Fill-41-Mask">
          <mask id="mask-2" fill="white">
            <use xlink:href="#path-1"></use>
          </mask>
          <path d="M264.081209,242.601689 L270.416033,241.911786 C319.426513,236.631754 328.988566,236.946837 341.305977,232.380155 C366.13056,223.179816 380.506725,205.796626 384.008678,180.146035 C387.59986,153.857838 366.423037,121.197185 328.837186,110.669574 C266.467712,93.2033278 240.660226,119.030051 184.837287,126.945744 C161.895718,130.197018 139.755709,127.054107 118.180411,116.144957 L117.400827,115.747266 C80.7108922,96.8711735 43.4508793,93.0759105 14.6213401,99.3823864 C-31.2098754,109.415918 -48.0843229,162.618242 -43.1393202,186.146931 L-42.4794976,189.253489 C-35.4857416,221.900327 -32.1506492,227.903859 -18.3262984,241.526874 C26.3357892,285.493661 112.899593,313.673504 167.712293,286.524241 C212.716325,264.219845 226.956984,246.689996 264.081209,242.601689 Z" id="Fill-42" fill="#F8C559" mask="url(#mask-2)"></path>
          <path d="M162.751994,138.083756 C178.99158,115.370732 205.463412,67.4375719 259.761407,29.4820849 C317.057331,-10.6114847 427.64565,-11.8062992 462.115576,53.1684462 C508.668186,140.811159 400.23141,245.186265 446.053691,302.160722 L446.986528,303.31713 C462.190495,322.093075 475.687733,335.536623 469.678909,366.897959 C464.919892,391.801629 453.17661,412.280431 433.41431,427.905165 C388.588704,463.199162 334.247013,480.959679 284.803206,462.746472 C263.251459,454.81332 238.085643,441.477353 209.670985,432.657823 C128.848122,407.566252 86.5804162,499.51948 1.40941817,461.271925 L-0.261027855,460.51807 C-18.3626319,452.3164 -39.4679162,441.548413 -47.8618524,420.12894 C-76.7416795,346.582581 -40.5533155,279.459613 27.7122179,236.471574 C75.8004271,206.217269 121.990011,194.940412 162.751994,138.083756 Z" id="Fill-41" fill="#1B6D4F" mask="url(#mask-2)"></path>
        </g>
      </g>
    </g>
  </g>
</svg>
