<?xml version="1.0" encoding="UTF-8"?>
<svg width="278px" height="257px" viewBox="0 0 278 257" version="1.1" xmlns="http://www.w3.org/2000/svg" xmlns:xlink="http://www.w3.org/1999/xlink">
    <!-- Generator: Sketch 63.1 (92452) - https://sketch.com -->
    <title>Group 4</title>
    <desc>Created with Sketch.</desc>
    <g id="Mobile" stroke="none" stroke-width="1" fill="none" fill-rule="evenodd">
        <g id="9.-404" transform="translate(-42.000000, -138.000000)">
            <g id="Group-4" transform="translate(39.000000, 138.000000)">
                <path d="M79.03584,200.324792 C84.4059663,190.07412 91.3646377,183.370069 92.756372,169.166597 C93.304631,163.497096 93.0937622,152.327924 98.7731627,140.083161 C104.761838,127.154831 124.035249,115.662982 136.659263,123.626607 C153.697465,134.362711 145.248653,163.865062 159.053533,169.257173 C163.748879,171.094171 167.586692,172.005593 169.751612,178.285068 C171.438563,183.170519 171.45262,187.986623 169.568859,192.763099 C165.281193,203.571381 157.549335,212.252539 147.03401,214.078215 C142.451127,214.875002 136.687379,215.085874 130.811167,216.426118 C114.096298,220.237393 115.994117,240.795349 97.1846175,242.725753 C93.1078201,243.141837 88.1313156,243.501311 84.3778504,240.482578 C71.8662997,230.434286 71.4164462,214.883493 79.03584,200.324792" id="Fill-41" fill="#FFFFFF"></path>
                <path d="M36.3743712,135.078227 C35.4981561,129.709542 34.6233686,124.33942 33.745726,118.972172 C33.6669821,118.491952 33.545398,118.020341 33.4737948,117.540124 C33.2618507,116.122477 33.6012757,114.979655 34.6176316,113.835673 C42.3445059,105.137963 51.5417884,98.5542569 62.2380398,94.0802545 C64.272769,93.2285417 70.8538696,90.476636 73.0072199,89.836312 C73.5084307,89.6869984 73.9127813,90.1529753 74.000091,90.6260103 C76.9842751,106.575503 78.3016347,111.587823 77.7043279,117.696312 C77.220794,122.641758 77.6988142,125.143531 75.4055223,125.819739 C73.7633761,126.302128 67.5603854,128.217455 64.4790366,129.547487 C65.5146305,130.042477 66.3528818,129.900491 67.1255573,130.046015 C76.0148961,131.720259 76.5768592,129.969387 76.8919082,135.550619 C77.7032853,149.968082 73.1051058,161.348365 72.8798011,162.174943 C72.6045869,163.184086 72.0192082,163.556207 71.0867324,163.77579 C66.2058723,164.92681 61.3321705,166.120964 56.4598938,167.307938 C55.534561,167.533267 54.6163825,167.791673 53.1070177,168.190731 C55.6378095,168.565569 57.4616509,168.871108 57.4616509,168.871108 C69.2685558,170.316521 68.9643173,170.199943 69.8027331,170.459072 C70.6725719,170.728277 71.0213377,171.467391 70.6046665,172.299641 C69.214814,175.082433 67.6635444,177.770271 65.7780067,180.246632 C59.9686651,187.872616 52.4744628,192.815182 43.0596178,194.729189 C39.6466826,195.42219 36.2265384,195.948416 32.5919034,195.811781 C31.8461815,198.706977 32.0649672,199.395719 31.5530086,201.195494 C30.4891597,204.931606 25.8368288,202.672526 25.8696288,199.076883 C25.8791852,198.002934 26.0039891,195.879521 26.398845,194.088325 C26.1985094,193.117803 25.510042,192.847235 24.9871888,192.458845 C20.801507,189.35172 18.0092553,185.220097 16.2863652,180.347067 C14.4962749,175.282796 13.0388605,170.030325 13.7907162,164.680999 C13.9089056,163.84 14.8684515,163.46372 15.5869927,163.937014 C16.7169449,164.680763 17.8169259,165.471943 18.9268956,166.242999 C19.0199107,166.698785 19.3755818,166.864265 19.7583224,166.87161 C20.0767974,166.87893 19.9608786,166.292306 19.4722296,165.731407 C19.3536403,165.597653 19.1622432,165.528565 19.0065362,165.427863 C17.8890933,163.845948 16.7573721,162.271215 15.6570608,160.67493 C15.038315,159.778997 14.773703,158.782571 14.7218334,157.668342 C14.2939109,148.479905 16.0768948,139.702118 19.5066337,131.232672 C20.528136,128.708513 21.7667534,126.282205 23.4453462,124.130676 C24.0905204,123.305709 24.904263,122.601576 25.7023021,121.911814 C26.1277331,121.545379 26.9489713,121.706737 27.2704883,122.166929 C27.6548806,122.719159 27.99216,123.308749 28.3165881,123.902648 C30.5418592,127.998096 33.0398322,131.922571 35.700569,135.7436 C35.8920528,136.024027 36.0364321,136.361943 36.2878677,136.570511 C36.5393027,136.777641 36.8348321,136.552046 36.7947361,136.287495 C36.7317281,135.871977 36.5202051,135.48084 36.3743712,135.078227" id="Fill-540" fill="#0A3E2B" transform="translate(45.716714, 146.462475) scale(-1, 1) rotate(-345.000000) translate(-45.716714, -146.462475) "></path>
                <path d="M173.797073,56.4871184 C180.942773,50.4698007 180.109256,46.221417 187.869945,39.9139074 C194.387517,34.6161202 201.870865,31.6969256 210.218195,30.9983856 C214.333519,30.6547153 215.497712,32.4236102 214.734192,33.6152771 C214.465477,34.0372864 214.16158,34.4407242 213.841023,34.8255831 C206.00495,44.3094461 196.33285,50.9318418 184.269522,53.7042311 C181.883898,54.2534938 179.766672,55.1557775 177.851081,56.6304226 C172.193228,60.9967053 171.076152,61.7517498 171.076152,61.7517498 C170.979811,61.8372843 171.037105,62.1272001 171.074068,62.3149021 C171.085158,62.3687965 171.29255,62.4523476 171.357385,62.4188664 C176.823841,59.6082983 195.269921,55.1308228 200.622059,55.6007048 C201.233204,55.6524941 201.771864,56.3287979 201.621595,56.9514857 C201.452769,57.6633933 201.300568,58.4812333 200.850314,59.0036808 C199.790458,60.2270653 198.684288,61.4839235 197.374532,62.4081784 C191.022127,66.884403 184.031409,69.8201225 176.28587,70.7972031 C169.416382,71.6624088 169.303517,71.398536 163.297968,70.0739732 C160.571048,71.9020828 156.957983,75.8772226 151.750982,82.780289 C149.394129,85.4278828 149.768517,84.7456281 150.138506,85.754688 C161.228232,77.1039932 177.939663,75.4559972 181.360019,76.2370565 C181.908165,76.3613566 182.083906,76.8500923 182.089239,77.3946556 C182.098096,78.3778436 181.482958,79.0304598 180.86043,79.6403315 C177.071533,83.3479072 172.969819,86.631854 168.144385,88.8957346 C157.461744,93.9052935 150.92761,94.4320988 144.993739,94.4475466 C143.617688,94.451829 142.585935,94.8890205 141.820573,96.0565265 C140.098973,98.6778391 138.338491,101.275006 136.594673,103.883318 C135.937052,104.259022 135.512713,104.813055 135.425358,105.569535 C135.412343,105.694065 135.778918,105.996864 135.812263,105.974548 C136.393954,105.59144 136.953436,105.17117 137.516619,104.758333 C147.633082,98.4312693 158.688815,95.8953343 170.51925,96.5131004 C171.254486,96.5518286 171.997078,96.7132205 172.704462,96.9266672 C173.382217,97.1289746 173.837373,98.2030499 173.513023,98.8035062 C173.159019,99.4597323 172.795737,100.15871 172.267705,100.662603 C168.16017,104.591481 162.622778,108.762563 152.416262,113.392775 C149.296884,114.80844 146.000006,115.506764 142.629172,115.90031 C138.887918,116.336756 134.651027,115.056073 131.190039,113.999959 C130.269309,114.676863 129.587409,115.548819 129.114722,116.57867 C122.222773,131.565416 122.602888,130.463119 123.091585,131.037221 C126.731439,129.48009 132.821878,122.513468 158.090564,118.588907 C158.692508,118.497589 159.333276,118.569811 159.946264,118.642044 C160.457397,118.701309 160.98297,119.67685 160.754982,120.139731 C158.97186,123.749837 151.569828,131.601683 142.880011,136.48404 C133.660395,141.663987 125.0049,139.626816 120.0288,138.965346 C116.139977,146.98488 113.063624,169.928522 110.292614,175.399477 C108.56328,178.816267 104.004866,175.760767 103.607445,169.385982 C103.355381,165.33437 103.903352,161.369782 104.775421,157.418071 C108.156074,142.116808 113.785398,130.54666 115.709751,125.773023 C115.750536,125.672642 115.698737,125.53327 115.669265,125.142979 C112.431216,122.388027 104.947287,117.692598 100.621056,103.950136 C98.2295117,96.3569389 97.1070988,87.5477055 99.3808315,79.8466523 C99.5458898,79.2890089 100.031322,78.7925672 100.459317,78.3556238 C100.835434,77.9726007 101.37439,77.9277733 101.835412,78.2435434 C103.670247,79.4991933 113.771786,91.4940706 118.196582,108.758511 C118.875188,111.402999 119.264848,114.121949 119.787867,116.809249 C120.393505,116.738374 119.383536,118.249818 128.546273,102.739877 C126.882581,99.6404399 122.94601,97.6459364 120.347438,84.5681388 C119.264392,79.1173529 119.009229,73.5900249 119.452285,68.0419656 C119.805983,63.6183872 120.844863,59.3506485 122.735568,55.3353274 C123.369511,53.9894512 124.268246,52.7531227 125.152154,51.5446791 C125.606153,50.9255837 127.099016,50.5922837 127.685117,53.0007695 C129.378712,59.9567587 131.129722,66.90529 132.091708,74.0102666 C133.747948,86.2483707 133.148622,88.9900303 133.146122,95.0824741 C133.673779,95.4930047 134.005446,95.113717 134.320443,94.7362948 C143.436878,83.7464517 141.887806,85.661431 142.638401,84.3749816 C141.169245,81.0933234 139.922387,77.6758972 139.43865,74.040703 C137.607086,60.2972167 139.732801,47.7323065 147.643583,36.7169385 C147.997522,36.2205509 148.521804,35.8263154 149.023851,35.4599678 C149.783407,34.9020802 150.918522,35.3216542 151.116311,36.2415727 C152.03318,40.4620433 152.702794,51.4813208 152.621244,56.1445449 C152.399359,68.8183295 150.045437,73.3523862 149.577566,76.1869211 C149.559001,76.2947266 149.657106,76.4210701 149.768106,76.7165396 C150.416356,76.6103339 149.815959,77.446944 160.272895,67.3338025 C157.235676,62.5993748 157.574785,57.6219439 158.9362,52.6645375 C161.73322,42.4820579 167.052078,33.7854107 174.744618,26.5616464 C175.107753,26.2213761 175.509768,25.9108272 175.928436,25.6393018 C176.871364,25.0274398 178.171258,25.5696128 178.172657,26.6717533 C178.179208,28.7608005 178.512026,34.6059147 174.718826,44.2888441 C172.840765,49.0829072 170.870118,53.8416952 168.938358,58.615336 C168.627005,59.1377264 168.286026,59.6434017 168.024667,60.1899331 C167.963498,60.3182007 168.15044,60.5913359 168.268896,60.7678528 C168.302213,60.8161624 168.539277,60.8030549 168.613383,60.7398325 C172.496601,57.3537534 171.340449,58.5567331 173.797073,56.4871184" id="Fill-477" fill="#0A3E2B" transform="translate(156.548447, 101.100168) rotate(-15.000000) translate(-156.548447, -101.100168) "></path>
                <g id="Group-2" transform="translate(80.500000, 68.500000) scale(-1, 1) translate(-80.500000, -68.500000) translate(39.000000, 0.000000)">
                    <path d="M39.2155365,35.8381953 C36.7729116,32.7779369 36.6751455,29.4151666 38.005681,25.914891 C41.1616929,17.6110945 45.7414235,10.2071942 52.1573237,4.0194525 C55.9854774,0.329725053 60.0305497,-2.0139776 62.9803362,2.51300477 C64.84553,5.37922784 64.3933618,9.14381932 63.0032501,11.9749021 C62.0500307,13.9137278 61.1304183,15.8938052 59.9343112,17.681375 C48.0832271,35.4119287 45.6360194,37.2346387 41.7437067,37.2224766 C40.9020017,36.7610091 40.0587691,36.2996022 39.2155365,35.8381953" id="Fill-480" fill="#F8C559"></path>
                    <path d="M39.1514364,36.3151918 C39.9892779,36.7807562 40.8271193,37.2463206 41.663443,37.711885 C20.7189237,92.8134334 33.8815349,124.931209 31.4530088,133.881761 C30.5832929,137.08059 26.5155118,137.082131 24.7654553,132.335533 C18.0035281,113.987363 29.3371555,54.8221467 39.1514364,36.3151918" id="Fill-481" fill="#1B6D4F"></path>
                    <path d="M3.73622917,64.2700298 C2.03658302,62.993824 1.1062005,61.2854803 0.823452675,59.2196124 C0.613366301,57.6636051 0.297446941,56.1122611 0.227944682,54.550036 C-0.143260566,46.0720499 1.05249421,36.2463533 4.73295475,29.428523 C5.84657049,27.3673184 7.55885342,26.0833404 9.8871791,25.5486086 C12.9468581,24.8444414 16.2908645,27.2678334 16.3982771,31.5161532 C16.4504038,33.6364269 16.0223331,35.7085126 15.4331435,37.7028756 C13.1300913,45.5077835 12.7272941,53.1665729 11.8521975,57.8050603 C10.9407702,62.6456266 8.12276948,63.4073085 6.59214018,64.4410196 C5.63964331,64.3835049 4.68872604,64.3275446 3.73622917,64.2700298" id="Fill-482" fill="#F8C559"></path>
                    <path d="M58.0724151,60.3061141 C55.9866686,56.5865098 57.2593805,52.9481328 59.2091001,49.098258 C61.9280755,43.7280504 66.4732517,35.6068375 71.1435102,31.7079197 C78.0386692,25.9545638 87.4948872,29.5423651 78.7188039,42.7012128 C65.991685,61.7820017 66.7359244,61.6026882 60.2738627,61.7191653 C59.540568,61.2471265 58.8072733,60.7766203 58.0724151,60.3061141" id="Fill-483" fill="#F8C559"></path>
                    <path d="M58.4695405,59.9045958 C59.1837384,60.378942 59.8964168,60.8532883 60.6090952,61.3291796 C47.8507846,86.3737338 44.6095416,98.056248 46.5834631,126.581916 C46.7566941,129.089617 46.9071316,131.592681 46.2354816,134.063299 C45.2659959,137.632484 41.2543308,136.285155 40.0933792,132.050031 C38.2820517,125.433906 38.9569213,122.081035 39.9095113,112.458141 C41.9229416,92.1338731 51.0358035,69.3853401 58.4695405,59.9045958" id="Fill-484" fill="#0A3E2B"></path>
                    <path d="M3.51814973,64.4410196 C4.42766143,64.4976931 5.33566481,64.5528349 6.2451765,64.6095084 C6.08831213,69.8464465 4.53475153,74.1444425 6.79872674,92.7609227 C7.43825072,98.013178 8.84550513,103.084691 10.3839826,108.125569 C13.114026,117.073856 17.0039608,124.50268 17.2935565,127.650357 C17.7023089,132.086208 6.80626829,138.044584 2.19988568,93.5221857 C1.5467869,87.2023242 2.3627833,69.6243477 3.51814973,64.4410196" id="Fill-485" fill="#1B6D4F"></path>
                </g>
                <g id="Group" transform="translate(21.000000, 57.000000)">
                    <path d="M125.036064,95.4673053 C135.368994,77.5899242 143.553388,63.5063396 161.204504,52.6439433 C164.709675,50.4864763 171.983276,46.8342234 175.675277,48.2239239 C176.847205,48.6657114 177.390709,49.98464 176.685853,51.0440722 C176.127488,51.8783213 175.486324,52.6782569 174.772976,53.3816856 C156.187714,71.7416015 161.350995,95.7160789 133.275657,117.820465 C122.71556,126.132933 119.409956,127.393957 113.265823,131.382912 C106.930613,135.496254 107.009167,138.061195 105.605824,139.435883 C104.380819,140.636859 103.211013,139.697525 101.820409,138.685274 C98.6294511,136.362672 94.9905273,135.575604 91.2029893,136.040982 C85.7085116,136.714387 80.2925871,136.186815 74.9063854,135.339698 C37.0692208,129.392724 28.390154,99.8873248 3.19156201,87.5301427 C2.42301451,87.1526932 1.70117432,86.6658691 0.9857033,86.1854789 C-0.538653347,85.1582157 -0.500438278,82.9020971 2.56950561,82.4753218 C38.4874245,77.4805497 49.9370838,88.8426376 62.7731009,100.009567 C64.3314265,101.785295 64.3314265,101.785295 65.6901846,101.830332 C65.1084663,100.762321 64.8685606,99.6235391 63.8409998,98.9415564 C52.2894336,76.4940339 51.7820224,59.1828271 35.3261891,47.81645 C31.4112675,45.1142547 27.4666232,42.4806865 22.7831541,41.2475418 C20.1972678,40.5677038 20.2588365,38.264404 22.9954601,37.9126897 C25.2713797,37.6210241 27.5409302,37.1384893 29.821096,37.0698621 C43.2770465,36.6645328 46.9138472,37.1170433 50.3532035,38.2451026 C61.4292043,41.8737649 69.7983045,47.3639395 76.5687409,56.9996248 C98.1496397,87.7167229 98.7632038,102.428675 101.461612,109.840411 C101.461612,75.5268196 93.8653058,20.0481762 132.137698,0.43581415 C134.901921,-0.981766091 136.712891,1.38801631 136.245818,2.84848854 C134.150358,9.40452908 127.010509,21.8560735 125.806734,42.081791 C125.239878,51.6638614 125.715443,61.2116182 126.443652,70.7572304 C127.033863,78.5056682 125.435199,87.1076566 124.05521,94.4722112 C123.059496,95.87049 122.889651,97.4960964 122.37587,99.8937586 C123.898104,98.1416208 124.723974,96.9642357 125.036064,95.4673053" id="Fill-546" fill="#1B6D4F"></path>
                    <path d="M133.653061,3.52519463 C131.553107,6.41901874 129.543798,8.24726247 126.979825,14.0563942 C120.112349,29.6147269 117.31313,41.5273138 117.293706,60.1663769 C117.257016,91.6912283 118.277857,108.963942 104.154424,130.932944 C103.079627,132.606507 101.27535,131.740723 102.404102,129.725573 C110.260046,115.724792 115.59734,108.835041 115.189435,65.8380143 C114.977929,43.5467605 116.544801,30.7017907 126.835224,9.74466069 C128.052464,7.25902261 129.677608,5.00110938 131.753822,3.11486026 C132.381866,2.54339982 133.027176,2.54339982 133.653061,3.52519463" id="Fill-547" fill="#0A3E2B"></path>
                    <path d="M98.4336735,127.786583 C97.7596905,128.034121 97.1892346,128.663636 96.1898805,127.511303 C71.9053639,99.4583975 74.8484935,69.423052 47.8933984,48.4676636 C41.2338547,43.290701 37.7984428,42.9706085 35.415205,41.9996613 C33.7968007,41.3402708 33.961599,39.5754942 35.9391793,40.094044 C47.9969256,43.2586918 59.2560337,54.4661969 65.2901889,64.6472721 C68.5988328,70.2254172 71.429984,76.031895 73.9442153,82.0154906 C87.9710907,115.439549 88.3091386,114.184786 98.0766104,126.53182 C98.3047927,126.819904 98.3005671,127.295774 98.4336735,127.786583" id="Fill-548" fill="#0A3E2B"></path>
                    <path d="M118.891416,119.090909 C118.140508,117.652148 117.156126,118.02372 122.631229,113.783048 C141.860347,98.8877675 141.044235,80.2854095 159.579237,58.6283848 C161.144153,56.7986093 165.742146,51.512351 168.163138,51.8320757 C168.411338,51.8644802 168.815187,52.0502661 168.840427,52.2166094 C168.901426,52.586021 168.886702,53.2492336 168.695294,53.3399663 C165.224714,55.0077192 162.864719,57.9327677 160.479484,60.8448544 C140.249156,85.5414235 145.945115,98.5486001 120.445815,118.349926 C120.023035,118.676131 119.467742,118.823032 118.891416,119.090909" id="Fill-549" fill="#0A3E2B"></path>
                    <path d="M14.9772848,86.3636364 C26.4909197,88.1688899 33.726687,94.2718658 53.3107441,108.619323 C67.6400318,119.116694 77.1831282,121.237184 81.0133364,123.164329 C81.1869613,123.252595 81.3061977,123.666605 81.2685441,123.897779 C81.2267068,124.126851 80.9631316,124.48622 80.7811392,124.496728 C80.0970987,124.536658 79.3461185,124.620721 78.7269259,124.393751 C54.1600421,115.436835 47.6773468,105.372389 29.6768329,94.360132 C20.1860331,88.5555798 17.9665624,89.3878038 13.7535427,87.7233559 C13.6510412,87.6813243 13.5192536,87.4585573 13.5506316,87.3723927 C13.8455848,86.5254577 13.9020652,86.672568 14.9772848,86.3636364" id="Fill-550" fill="#0A3E2B"></path>
                </g>
                <path d="M187.037532,148.22617 C188.449654,141.519277 188.738152,136.340871 195.275991,129.35727 C196.15233,128.42173 197.262939,127.650899 198.39307,127.038187 C199.993908,126.164139 201.620775,127.101874 201.915781,128.950991 C202.27803,131.221759 200.959182,138.627012 207.42327,146.991961 C216.036993,158.13937 222.457698,165.64784 216.954547,187.481477 C212.566342,204.900951 200.095858,212.760796 183.020254,217.693239 C158.643267,224.733939 125.832597,203.275836 139.021072,154.47847 C140.042745,150.703372 142.519922,151.322673 143.283466,153.323321 C144.081715,155.407421 143.730312,158.868476 149.751892,165.27011 C153.994763,153.538539 146.984047,121.444717 175.662473,108.86545 C176.191747,108.63486 176.703668,108.34717 177.252465,108.189051 C179.738319,107.477514 181.373863,108.825921 180.831574,111.369006 C178.068068,124.297453 178.870656,137.619002 187.037532,148.22617" id="Fill-137" fill="#DE4A4D" transform="translate(177.500000, 163.500000) scale(-1, 1) translate(-177.500000, -163.500000) "></path>
                <path d="M181.826221,178.931886 C182.540789,175.608651 182.686776,173.042774 185.99508,169.582431 C186.438529,169.118875 187.000523,168.736932 187.572397,168.433336 C188.382459,168.000249 189.205694,168.464892 189.354973,169.381122 C189.53828,170.506277 188.870912,174.175547 192.141896,178.320341 C196.500647,183.843832 199.749679,187.564245 196.964951,198.382714 C194.744414,207.013985 188.434049,210.908503 179.793381,213.352506 C167.458039,216.841141 150.855049,206.208747 157.528735,182.029872 C158.045726,180.159328 159.299238,180.466189 159.685609,181.457501 C160.089543,182.490163 159.911724,184.205101 162.958789,187.377082 C165.105784,181.564141 161.558193,165.661797 176.070167,159.428827 C176.337993,159.31457 176.597037,159.172021 176.874741,159.093674 C178.132643,158.741111 178.960268,159.40924 178.685857,160.669327 C177.287456,167.075314 177.693585,173.676082 181.826221,178.931886" id="Fill-137" fill="#F8C559"></path>
                <g id="Group-3" transform="translate(245.000000, 97.500000) scale(-1, 1) translate(-245.000000, -97.500000) translate(209.000000, 56.000000)" fill="#FFFFFF">
                    <path d="M59.3585404,52.917503 C50.4665404,58.8411769 45.7244404,59.6008073 41.0246404,66.010753 C34.1189404,75.4303508 33.1721404,77.3023617 30.9320404,79.1617421 C26.5985404,82.7596117 21.8690404,83.5598399 16.7732404,81.474916 C11.5505404,79.3385682 7.78764041,71.9569812 9.84504041,63.9059812 C13.2596404,50.5465899 20.7593404,48.5374486 28.1519404,39.0871769 C31.2263404,35.1564052 33.0074404,30.6798182 33.2594404,25.4607421 C33.6842404,16.6861986 36.9467404,9.41197037 41.1731404,4.76757907 C47.8934404,-2.61491006 59.4845404,-0.0626600639 63.2915404,3.35387254 C69.0155404,8.49626385 69.7805404,9.7015682 70.8515404,13.824503 C74.1995404,26.7400247 70.1855404,45.7010138 59.3585404,52.917503" id="Fill-42"></path>
                    <path d="M24.1856404,23.9486986 C23.9993404,28.1925247 23.3207404,31.2211225 19.2527404,37.9170573 C17.1773404,41.3335899 14.4080404,43.9399704 11.0663404,45.8074704 C6.05604041,48.606916 -0.603059594,45.681166 1.16994041,39.2522747 C3.35424041,31.3338943 10.8926404,33.5523399 13.2299404,25.6114052 C14.7509404,20.4500682 14.6951404,18.0926878 16.4951404,16.5653073 C19.8305404,13.7333834 24.3566404,17.7291117 24.1856404,23.9486986" id="Fill-80"></path>
                </g>
                <path d="M155.069814,240.405961 C154.737814,242.120961 154.227814,249.246961 147.293814,254.597961 C140.116814,260.137961 128.409814,254.941961 130.179814,245.573961 C131.676814,237.649961 138.172814,228.532961 145.285814,230.198961 C146.847814,230.564961 148.389814,231.059961 149.909814,231.602961 C152.495814,232.525961 155.172814,236.938961 155.069814,240.405961" id="Fill-77" fill="#F8C559"></path>
            </g>
        </g>
    </g>
</svg>