<?xml version="1.0" encoding="UTF-8"?>
<svg width="301px" height="247px" viewBox="0 0 301 247" version="1.1" xmlns="http://www.w3.org/2000/svg" xmlns:xlink="http://www.w3.org/1999/xlink">
    <!-- Generator: Sketch 63.1 (92452) - https://sketch.com -->
    <title>Fill 42 + Fill 41 Mask</title>
    <desc>Created with Sketch.</desc>
    <g id="Mobile" stroke="none" stroke-width="1" fill="none" fill-rule="evenodd">
        <g id="2.1.-Login-" transform="translate(0.000000, -20.000000)">
            <g id="Background" transform="translate(0.000000, 20.000000)">
                <g id="Fill-42-+-Fill-41-Mask">
                    <path d="M300.497857,-0.00371808294 C285.427873,4.7088118 271.479991,11.2818529 259.761407,19.4820849 C205.463412,57.4375719 178.99158,105.370732 162.751994,128.083756 C121.990011,184.940412 75.8004271,196.217269 27.7122179,226.471574 C17.757251,232.740396 8.48442271,239.522461 -0.00395852446,246.762844 L-2.84217094e-14,-4.26325641e-14 L300.497857,-0.00371808294 Z" id="Path" fill="#F0EDE5"></path>
                    <path d="M14.6213401,89.3823864 C43.1625839,83.1389753 79.966535,86.7962784 116.299967,105.185502 L117.400827,105.747266 C134.398258,114.494793 151.744851,118.405793 169.556635,118.152419 L167.495942,121.219037 C165.819349,123.701782 164.242569,125.999006 162.751994,128.083756 C121.990011,184.940412 75.8004271,196.217269 27.7122179,226.471574 C17.757251,232.740396 8.48442271,239.522461 -0.0048716929,246.762844 L-0.0048716929,94.4229072 C4.49742278,92.2489076 9.36924635,90.5321933 14.6213401,89.3823864 Z" id="Path" fill="#0A3E2B"></path>
                </g>
            </g>
        </g>
    </g>
</svg>