<svg id="Layer_1" data-name="Layer 1" xmlns="http://www.w3.org/2000/svg"
  viewBox="0 0 100 100"><defs><style>.cls-1{fill:rgba(65, 181, 158, 0.1);}.cls-2,.cls-4{fill:rgba(65, 181, 158, 0.3);}.cls-3,.cls-6{fill:#fff;}.cls-4,.cls-5,.cls-6,.cls-7{stroke:#202425;stroke-linejoin:round;}.cls-5,.cls-7{fill:none;}.cls-7{stroke-linecap:round;}</style></defs><title>write-paper-ink</title><circle
    class="cls-1" cx="50" cy="50" r="40" /><path class="cls-2"
      d="M22.35,78.93c0,1,7.21,1.89,16.1,1.89s16.1-.85,16.1-1.89S47.34,77,38.45,77,22.35,77.88,22.35,78.93Z"
      /><path class="cls-3"
        d="M49.2,78.29h0a5.06,5.06,0,0,1-5.06-5.06V45.4a5.06,5.06,0,0,0-5.06-5.06H21.37a5.06,5.06,0,0,1,5.06,5.06V73.23a5.06,5.06,0,0,0,5.06,5.06Z"
        /><path class="cls-4"
          d="M26.43,45.4a5.06,5.06,0,1,0-10.12,0v5.81a1.15,1.15,0,0,0,1.15,1.15h9Z"
          /><path class="cls-5"
            d="M49.2,78.29h0a5.06,5.06,0,0,1-5.06-5.06V45.4a5.06,5.06,0,0,0-5.06-5.06H21.37a5.06,5.06,0,0,1,5.06,5.06V73.23a5.06,5.06,0,0,0,5.06,5.06Z"
            /><path class="cls-6"
              d="M49.2,78.29a5.06,5.06,0,0,0,5-5.55A5.21,5.21,0,0,0,49,68.17H34.9a.58.58,0,0,0-.34,1,5.06,5.06,0,0,1-3.07,9.08Z"
              /><line class="cls-7" x1="40.35" y1="47.93" x2="30.86" y2="47.93"
                /><line class="cls-7" x1="40.35" y1="51.73" x2="30.86"
                  y2="51.73" /><line class="cls-7" x1="38.68" y1="55.52"
                    x2="33.62" y2="55.52" /><line class="cls-7" x1="38.68"
                      y1="59.32" x2="34.89" y2="59.32" /><polygon class="cls-2"
                        points="55.09 53.16 49.73 47.79 54.2 41.53 61.35 48.69
                        55.09 53.16" /><path class="cls-2"
                          d="M61.36,48.69,54.2,41.53,74.43,23.69a3.66,3.66,0,0,1,5.12,5.22Z"
                          /><path class="cls-3"
                            d="M48.56,60.23a3.44,3.44,0,0,1-2.71,1.38c-1.68,0-4.28.26-6,1.39,1.12-1.69,1.36-4.28,1.38-6a3.45,3.45,0,0,1,1.39-2.71L48.39,50l4.47,4.47Z"
                            /><polygon class="cls-6" points="52.86 54.5 48.38
                              50.03 49.73 47.79 55.09 53.16 52.86 54.5" /><path
                                class="cls-5"
                                d="M48.56,60.23a3.44,3.44,0,0,1-2.71,1.38c-1.68,0-4.28.26-6,1.39,1.12-1.69,1.36-4.28,1.38-6a3.45,3.45,0,0,1,1.39-2.71L48.39,50l4.47,4.47Z"
                                /><polygon class="cls-5" points="55.09 53.16
                                  49.73 47.79 54.2 41.53 61.35 48.69 55.09
                                  53.16" /><path class="cls-4"
                                    d="M46.6,58.08a1.27,1.27,0,0,1-1.79,0,1.26,1.26,0,0,1,0-1.79,1.27,1.27,0,0,1,1.79,1.79Z"
                                    /><line class="cls-5" x1="44.81" y1="58.08"
                                      x2="40.34" y2="62.55" /><path
                                        class="cls-7"
                                        d="M78.07,30.52l.81.8a2.54,2.54,0,0,1,.08,3.5l-7.76,8.5"
                                        /><polygon class="cls-6" points="56.1
                                          39.85 54.2 41.53 61.35 48.69 63.07
                                          46.82 56.1 39.85" /><path
                                            class="cls-5"
                                            d="M61.36,48.69,54.2,41.53,74.43,23.69a3.66,3.66,0,0,1,5.12,5.22Z"
                                            /></svg>
