<?xml version="1.0" encoding="UTF-8"?>
<svg width="2187px" height="1196px" viewBox="0 0 2187 1196" version="1.1" xmlns="http://www.w3.org/2000/svg" xmlns:xlink="http://www.w3.org/1999/xlink">
    <!-- Generator: Sketch 51.2 (57519) - http://www.bohemiancoding.com/sketch -->
    <title>Detailed 2</title>
    <desc>Created with Sketch.</desc>
    <defs></defs>
    <g id="Detailed-2" stroke="none" stroke-width="1" fill="none" fill-rule="evenodd">
        <g id="Group" transform="translate(761.000000, 32.000000)">
            <path d="M414.999268,0 C427.149712,0 437,10.0741578 437,22.5007482 C437,34.9258422 427.149712,45 414.999268,45 C402.850288,45 393,34.9258422 393,22.5007482 C393,10.0741578 402.850288,0 414.999268,0" id="Fill-2" fill="#F8C559"></path>
            <path d="M235.218088,604.83484 C225.654167,602.987191 209.062674,590.893488 214.70799,558.352468 C216.768082,546.471524 214.229517,545.497309 200.403643,542.322712 C186.894535,539.222021 166.480796,534.534591 165.01215,505.648557 C164.755192,500.587118 168.605127,496.273697 173.611372,496.012787 C178.628693,495.747397 182.885108,499.645377 183.140958,504.706815 C183.871959,519.074807 190.56615,521.242715 204.423037,524.425151 C216.868872,527.281728 237.696844,532.06546 232.587594,561.523705 C228.713292,583.854505 238.524203,586.788347 238.624993,586.807384 C243.548169,587.759203 246.776754,592.56645 245.83753,597.543905 C244.894982,602.528078 240.131296,605.786659 235.218088,604.83484" id="Fill-9" fill="#EC913D" transform="translate(205.500000, 550.500000) rotate(-300.000000) translate(-205.500000, -550.500000) "></path>
            <path d="M501,464 C509.836763,464 517,471.163237 517,480 C517,488.836763 509.836763,496 501,496 C492.163237,496 485,488.836763 485,480 C485,471.163237 492.163237,464 501,464" id="Fill-10" fill="#5CB3D5"></path>
            <path d="M377.999248,537 C386.836427,537 394,544.163237 394,553 C394,561.836763 386.836427,569 377.999248,569 C369.163573,569 362,561.836763 362,553 C362,544.163237 369.163573,537 377.999248,537" id="Fill-11" fill="#41B59E"></path>
            <path d="M95,271 C103.835933,271 111,278.164067 111,287 C111,295.835933 103.835933,303 95,303 C86.1625634,303 79,295.835933 79,287 C79,278.164067 86.1625634,271 95,271" id="Fill-12" fill="#F8C559"></path>
            <path d="M146.203547,543.120728 L123.638996,534.14784 C117.38572,531.660988 114.364892,524.662047 116.893922,518.511595 C119.422952,512.362609 126.539109,509.392162 132.795366,511.879014 L155.362898,520.851903 C161.616174,523.338754 164.634021,530.337696 162.106481,536.488147 C159.583412,542.629806 152.467255,545.610511 146.203547,543.120728" id="Fill-14" fill="#DE4A4D"></path>
            <path d="M513.699236,497.377457 C510.20753,494.957864 505.403612,495.808648 502.967319,499.280035 C497.3281,507.31761 496.232238,516.881922 495.266187,525.318711 C493.60123,539.862449 492.979458,545.309339 477.683489,544.334209 C460.841085,543.264652 448.256079,546.852905 440.272751,554.989582 C430.437277,565.014814 430.786259,578.844267 440.057342,578.99853 C447.765999,579.12568 448.289002,570.96189 448.289002,570.96189 C448.289002,570.96189 449.882469,557.93741 476.700505,559.628694 C518.930211,562.301653 505.435594,522.555064 515.611585,508.044984 C518.049759,504.573597 517.192824,499.797985 513.699236,497.377457" id="Fill-20" fill="#EC913D" transform="translate(475.000000, 537.500000) rotate(-270.000000) translate(-475.000000, -537.500000) "></path>
            <path d="M434,441 C512.980688,441 577,377.021386 577,298.090909 C577,219.160432 512.980688,48 434,48 C355.019313,48 291,219.160432 291,298.090909 C291,377.021386 355.019313,441 434,441" id="Fill-3" fill="#F8C559" transform="translate(434.000000, 244.500000) rotate(-330.000000) translate(-434.000000, -244.500000) "></path>
            <path d="M181.5,479 C240.873594,479 289,430.812545 289,371.363636 C289,311.914727 240.873594,183 181.5,183 C122.126406,183 74,311.914727 74,371.363636 C74,430.812545 122.126406,479 181.5,479" id="Fill-3" fill="#F8C559" transform="translate(181.500000, 331.000000) rotate(-45.000000) translate(-181.500000, -331.000000) "></path>
            <path d="M318.5,488 C405.489219,488 476,417.672364 476,330.909091 C476,244.145818 405.489219,56 318.5,56 C231.510781,56 161,244.145818 161,330.909091 C161,417.672364 231.510781,488 318.5,488" id="Fill-3" fill="#41B59E"></path>
            <path d="M316.932709,63.9940358 C393.324537,63.9940358 461.925424,241.778045 461.925424,325.740491 C461.925424,402.655171 402.043432,465.639124 326.59889,470.660778 L326.59889,444.999931 L402.304419,331.11114 C405.271937,326.651756 404.07333,320.641282 399.626887,317.665128 C395.170778,314.698668 389.168079,315.891069 386.219894,320.350453 L326.59889,410.042238 L326.59889,367.435732 L402.304419,253.546941 C405.271937,249.087557 404.07333,243.077083 399.626887,240.100928 C395.170778,237.134469 389.168079,238.326869 386.219894,242.786253 L326.59889,332.478038 L326.59889,289.231707 L364.248665,213.722702 C366.636211,208.933712 364.702975,203.107429 359.927882,200.712934 C355.143122,198.337827 349.35308,200.257301 346.955867,205.046292 L326.608556,245.869045 L326.608556,131.854228 C326.608556,126.493273 322.278107,122.159915 316.942375,122.159915 C311.606643,122.159915 307.276194,126.493273 307.276194,131.854228 L307.276194,245.898128 L286.928883,205.075375 C284.541336,200.296079 278.741628,198.357216 273.956868,200.742017 C269.181775,203.136512 267.248538,208.962795 269.636085,213.751785 L307.28586,289.26079 L307.28586,332.507121 L247.664856,242.815336 C244.697338,238.355952 238.704306,237.163551 234.257863,240.130011 C229.821086,243.106165 228.622479,249.11664 231.580331,253.576024 L307.28586,367.464814 L307.28586,410.071321 L247.664856,320.379536 C244.697338,315.920151 238.704306,314.727751 234.257863,317.694211 C229.821086,320.670365 228.622479,326.680839 231.580331,331.140223 L307.28586,445.029014 L307.28586,470.689861 C231.841317,465.668207 171.959326,402.684254 171.959326,325.769574 C171.939994,241.778045 240.54088,63.9940358 316.932709,63.9940358 Z M316.942373,510.912525 C303.473119,510.912525 292.226292,501.376554 289.061017,488.5666 C298.143143,490.174008 307.427307,491.189732 316.942373,491.189732 C326.46706,491.189732 335.741603,490.174008 344.823729,488.5666 C341.658454,501.376554 330.411627,510.912525 316.942373,510.912525 Z M269.369235,483.495655 C270.511059,505.772172 286.564324,524.163138 307.823529,528.504103 L307.823529,597.310345 C307.823529,602.668724 312.158588,607 317.5,607 C322.841412,607 327.176471,602.668724 327.176471,597.310345 L327.176471,528.504103 C348.435676,524.163138 364.488941,505.772172 365.630765,483.495655 C432.920941,462.827621 482,400.067724 482,326 C482,242.194172 412.532618,45 317.5,45 C222.467382,45 153,242.194172 153,326 C153,400.067724 202.079059,462.827621 269.369235,483.495655 Z" id="Fill-8" fill="#1A1E1F"></path>
            <path d="M141.951868,166.83181 C132.151801,164.950259 115.150641,152.634653 120.935348,119.49655 C123.046306,107.397607 120.445061,106.405516 106.277807,103.17267 C92.4351403,100.015085 71.5173588,95.2416476 70.0124498,65.8255944 C69.7491474,60.6712852 73.6941428,56.278719 78.8239986,56.0130212 C83.9652036,55.7427621 88.326716,59.7122644 88.5888834,64.8665736 C89.3379331,79.4981978 96.1974129,81.7058842 110.396445,84.9467132 C123.149585,87.855705 144.491828,92.7272114 139.256424,122.725975 C135.28646,145.466514 145.339616,148.454189 145.442894,148.473574 C150.48763,149.442858 153.795933,154.338312 152.833518,159.407096 C151.867698,164.482722 146.98639,167.801094 141.951868,166.83181" id="Fill-9" fill="#EC913D"></path>
            <path d="M174,89 C180.627573,89 186,94.3724274 186,101 C186,107.627573 180.627573,113 174,113 C167.372427,113 162,107.627573 162,101 C162,94.3724274 167.372427,89 174,89" id="Fill-10" fill="#5CB3D5"></path>
            <path d="M601.127371,103.951849 C594.346882,113.635675 593.029239,125.158942 591.867677,135.323749 C589.865765,152.846324 589.118158,159.408842 570.726575,158.233987 C550.47559,156.945364 535.343619,161.26856 525.744618,171.071786 C513.91863,183.150378 514.33824,199.81237 525.485613,199.998229 C534.754355,200.151422 535.383205,190.31553 535.383205,190.31553 C535.383205,190.31553 537.299159,174.623385 569.544655,176.661078 C620.320849,179.88151 604.095178,131.994054 616.330596,114.512029 C619.262211,110.329635 618.231848,104.575886 614.031225,101.659587 C609.832863,98.7444139 604.056723,99.7694553 601.127371,103.951849 Z" id="Fill-20" fill="#EC913D"></path>
        </g>
        <text id="HappyPlants" font-family="Asap-Medium, Asap" font-size="400" font-weight="400" letter-spacing="-15" fill="#1A1E1F">
            <tspan x="46" y="1079">HappyPlants</tspan>
        </text>
    </g>
</svg>