<?xml version="1.0" encoding="UTF-8"?>
<svg width="2187px" height="1196px" viewBox="0 0 2187 1196" version="1.1" xmlns="http://www.w3.org/2000/svg" xmlns:xlink="http://www.w3.org/1999/xlink">
    <!-- Generator: Sketch 51.2 (57519) - http://www.bohemiancoding.com/sketch -->
    <title>Detailed 2</title>
    <desc>Created with Sketch.</desc>
    <defs></defs>
    <g id="Detailed-2" stroke="none" stroke-width="1" fill="none" fill-rule="evenodd">
        <g id="Group" transform="translate(761.000000, 32.000000)">
            <path d="M414.999268,0 C427.149712,0 437,10.0741578 437,22.5007482 C437,34.9258422 427.149712,45 414.999268,45 C402.850288,45 393,34.9258422 393,22.5007482 C393,10.0741578 402.850288,0 414.999268,0" id="Fill-2" fill="#F8C559"></path>
            <path d="M235.218088,604.83484 C225.654167,602.987191 209.062674,590.893488 214.70799,558.352468 C216.768082,546.471524 214.229517,545.497309 200.403643,542.322712 C186.894535,539.222021 166.480796,534.534591 165.01215,505.648557 C164.755192,500.587118 168.605127,496.273697 173.611372,496.012787 C178.628693,495.747397 182.885108,499.645377 183.140958,504.706815 C183.871959,519.074807 190.56615,521.242715 204.423037,524.425151 C216.868872,527.281728 237.696844,532.06546 232.587594,561.523705 C228.713292,583.854505 238.524203,586.788347 238.624993,586.807384 C243.548169,587.759203 246.776754,592.56645 245.83753,597.543905 C244.894982,602.528078 240.131296,605.786659 235.218088,604.83484" id="Fill-9" fill="#EC913D" transform="translate(205.500000, 550.500000) rotate(-300.000000) translate(-205.500000, -550.500000) "></path>
            <path d="M501,464 C509.836763,464 517,471.163237 517,480 C517,488.836763 509.836763,496 501,496 C492.163237,496 485,488.836763 485,480 C485,471.163237 492.163237,464 501,464" id="Fill-10" fill="#5CB3D5"></path>
            <path d="M377.999248,537 C386.836427,537 394,544.163237 394,553 C394,561.836763 386.836427,569 377.999248,569 C369.163573,569 362,561.836763 362,553 C362,544.163237 369.163573,537 377.999248,537" id="Fill-11" fill="#41B59E"></path>
            <path d="M95,271 C103.835933,271 111,278.164067 111,287 C111,295.835933 103.835933,303 95,303 C86.1625634,303 79,295.835933 79,287 C79,278.164067 86.1625634,271 95,271" id="Fill-12" fill="#F8C559"></path>
            <path d="M146.203547,543.120728 L123.638996,534.14784 C117.38572,531.660988 114.364892,524.662047 116.893922,518.511595 C119.422952,512.362609 126.539109,509.392162 132.795366,511.879014 L155.362898,520.851903 C161.616174,523.338754 164.634021,530.337696 162.106481,536.488147 C159.583412,542.629806 152.467255,545.610511 146.203547,543.120728" id="Fill-14" fill="#DE4A4D"></path>
            <path d="M513.699236,497.377457 C510.20753,494.957864 505.403612,495.808648 502.967319,499.280035 C497.3281,507.31761 496.232238,516.881922 495.266187,525.318711 C493.60123,539.862449 492.979458,545.309339 477.683489,544.334209 C460.841085,543.264652 448.256079,546.852905 440.272751,554.989582 C430.437277,565.014814 430.786259,578.844267 440.057342,578.99853 C447.765999,579.12568 448.289002,570.96189 448.289002,570.96189 C448.289002,570.96189 449.882469,557.93741 476.700505,559.628694 C518.930211,562.301653 505.435594,522.555064 515.611585,508.044984 C518.049759,504.573597 517.192824,499.797985 513.699236,497.377457" id="Fill-20" fill="#EC913D" transform="translate(475.000000, 537.500000) rotate(-270.000000) translate(-475.000000, -537.500000) "></path>
            <path d="M434,441 C512.980688,441 577,377.021386 577,298.090909 C577,219.160432 512.980688,48 434,48 C355.019313,48 291,219.160432 291,298.090909 C291,377.021386 355.019313,441 434,441" id="Fill-3" fill="#F8C559" transform="translate(434.000000, 244.500000) rotate(-330.000000) translate(-434.000000, -244.500000) "></path>
            <path d="M181.5,479 C240.873594,479 289,430.812545 289,371.363636 C289,311.914727 240.873594,183 181.5,183 C122.126406,183 74,311.914727 74,371.363636 C74,430.812545 122.126406,479 181.5,479" id="Fill-3" fill="#F8C559" transform="translate(181.500000, 331.000000) rotate(-45.000000) translate(-181.500000, -331.000000) "></path>
            <path d="M318.5,488 C405.489219,488 476,417.672364 476,330.909091 C476,244.145818 405.489219,56 318.5,56 C231.510781,56 161,244.145818 161,330.909091 C161,417.672364 231.510781,488 318.5,488" id="Fill-3" fill="#41B59E"></path>
            <path d="M316.932709,63.9940358 C393.324537,63.9940358 461.925424,241.778045 461.925424,325.740491 C461.925424,402.655171 402.043432,465.639124 326.59889,470.660778 L326.59889,444.999931 L402.304419,331.11114 C405.271937,326.651756 404.07333,320.641282 399.626887,317.665128 C395.170778,314.698668 389.168079,315.891069 386.219894,320.350453 L326.59889,410.042238 L326.59889,367.435732 L402.304419,253.546941 C405.271937,249.087557 404.07333,243.077083 399.626887,240.100928 C395.170778,237.134469 389.168079,238.326869 386.219894,242.786253 L326.59889,332.478038 L326.59889,289.231707 L364.248665,213.722702 C366.636211,208.933712 364.702975,203.107429 359.927882,200.712934 C355.143122,198.337827 349.35308,200.257301 346.955867,205.046292 L326.608556,245.869045 L326.608556,131.854228 C326.608556,126.493273 322.278107,122.159915 316.942375,122.159915 C311.606643,122.159915 307.276194,126.493273 307.276194,131.854228 L307.276194,245.898128 L286.928883,205.075375 C284.541336,200.296079 278.741628,198.357216 273.956868,200.742017 C269.181775,203.136512 267.248538,208.962795 269.636085,213.751785 L307.28586,289.26079 L307.28586,332.507121 L247.664856,242.815336 C244.697338,238.355952 238.704306,237.163551 234.257863,240.130011 C229.821086,243.106165 228.622479,249.11664 231.580331,253.576024 L307.28586,367.464814 L307.28586,410.071321 L247.664856,320.379536 C244.697338,315.920151 238.704306,314.727751 234.257863,317.694211 C229.821086,320.670365 228.622479,326.680839 231.580331,331.140223 L307.28586,445.029014 L307.28586,470.689861 C231.841317,465.668207 171.959326,402.684254 171.959326,325.769574 C171.939994,241.778045 240.54088,63.9940358 316.932709,63.9940358 Z M316.942373,510.912525 C303.473119,510.912525 292.226292,501.376554 289.061017,488.5666 C298.143143,490.174008 307.427307,491.189732 316.942373,491.189732 C326.46706,491.189732 335.741603,490.174008 344.823729,488.5666 C341.658454,501.376554 330.411627,510.912525 316.942373,510.912525 Z M269.369235,483.495655 C270.511059,505.772172 286.564324,524.163138 307.823529,528.504103 L307.823529,597.310345 C307.823529,602.668724 312.158588,607 317.5,607 C322.841412,607 327.176471,602.668724 327.176471,597.310345 L327.176471,528.504103 C348.435676,524.163138 364.488941,505.772172 365.630765,483.495655 C432.920941,462.827621 482,400.067724 482,326 C482,242.194172 412.532618,45 317.5,45 C222.467382,45 153,242.194172 153,326 C153,400.067724 202.079059,462.827621 269.369235,483.495655 Z" id="Fill-8" fill="#1A1E1F"></path>
            <path d="M141.951868,166.83181 C132.151801,164.950259 115.150641,152.634653 120.935348,119.49655 C123.046306,107.397607 120.445061,106.405516 106.277807,103.17267 C92.4351403,100.015085 71.5173588,95.2416476 70.0124498,65.8255944 C69.7491474,60.6712852 73.6941428,56.278719 78.8239986,56.0130212 C83.9652036,55.7427621 88.326716,59.7122644 88.5888834,64.8665736 C89.3379331,79.4981978 96.1974129,81.7058842 110.396445,84.9467132 C123.149585,87.855705 144.491828,92.7272114 139.256424,122.725975 C135.28646,145.466514 145.339616,148.454189 145.442894,148.473574 C150.48763,149.442858 153.795933,154.338312 152.833518,159.407096 C151.867698,164.482722 146.98639,167.801094 141.951868,166.83181" id="Fill-9" fill="#EC913D"></path>
            <path d="M174,89 C180.627573,89 186,94.3724274 186,101 C186,107.627573 180.627573,113 174,113 C167.372427,113 162,107.627573 162,101 C162,94.3724274 167.372427,89 174,89" id="Fill-10" fill="#5CB3D5"></path>
            <path d="M601.127371,103.951849 C594.346882,113.635675 593.029239,125.158942 591.867677,135.323749 C589.865765,152.846324 589.118158,159.408842 570.726575,158.233987 C550.47559,156.945364 535.343619,161.26856 525.744618,171.071786 C513.91863,183.150378 514.33824,199.81237 525.485613,199.998229 C534.754355,200.151422 535.383205,190.31553 535.383205,190.31553 C535.383205,190.31553 537.299159,174.623385 569.544655,176.661078 C620.320849,179.88151 604.095178,131.994054 616.330596,114.512029 C619.262211,110.329635 618.231848,104.575886 614.031225,101.659587 C609.832863,98.7444139 604.056723,99.7694553 601.127371,103.951849 Z" id="Fill-20" fill="#EC913D"></path>
        </g>
        <path d="M286.4,798.2 C300.266736,798.2 307.2,801.933296 307.2,809.4 L307.2,1068.6 C307.2,1076.0667 300.266736,1079.8 286.4,1079.8 L276.4,1079.8 C262.266596,1079.8 255.2,1076.0667 255.2,1068.6 L255.2,958.2 L133.6,958.2 L133.6,1068.6 C133.6,1076.0667 126.666736,1079.8 112.8,1079.8 L102.4,1079.8 C88.533264,1079.8 81.6,1076.0667 81.6,1068.6 L81.6,809.4 C81.6,801.933296 88.533264,798.2 102.4,798.2 L112.8,798.2 C126.666736,798.2 133.6,801.933296 133.6,809.4 L133.6,913.4 L255.2,913.4 L255.2,809.4 C255.2,801.933296 262.266596,798.2 276.4,798.2 L286.4,798.2 Z M429.8,867 C458.066808,867 479.066598,872.733276 492.8,884.2 C506.533402,895.666724 513.4,911.666564 513.4,932.2 L513.4,1012.6 C513.4,1031.00009 514.199992,1044.33329 515.8,1052.6 C517.400008,1060.86671 518.2,1065.93332 518.2,1067.8 C518.2,1071.53335 513.800044,1074.39999 505,1076.4 C496.199956,1078.40001 488.4667,1079.4 481.8,1079.4 C477.533312,1079.4 474.466676,1077.46669 472.6,1073.6 C470.733324,1069.73331 469.333338,1065.53336 468.4,1061 C467.466662,1056.46664 466.866668,1053.40001 466.6,1051.8 C460.466636,1059.2667 452.333384,1066.1333 442.2,1072.4 C432.066616,1078.6667 419.533408,1081.8 404.6,1081.8 C384.333232,1081.8 368.86672,1076.53339 358.2,1066 C347.53328,1055.46661 342.2,1041.13342 342.2,1023 C342.2,973.933088 382.599596,949.266668 463.4,949 L463.4,933.8 C463.4,915.933244 451.40012,907 427.4,907 C417.533284,907 408.800038,908.133322 401.2,910.4 C393.599962,912.666678 387.066694,915.066654 381.6,917.6 C376.133306,920.133346 373.000004,921.4 372.2,921.4 C368.733316,921.4 364.800022,917.73337 360.4,910.4 C355.999978,903.06663 353.8,897.533352 353.8,893.8 C353.8,889.533312 357.199966,885.333354 364,881.2 C370.800034,877.066646 380.066608,873.66668 391.8,871 C403.533392,868.33332 416.199932,867 429.8,867 Z M463.4,984.2 C441.266556,984.466668 423.933396,987.066642 411.4,992 C398.866604,996.933358 392.6,1005.6666 392.6,1018.2 C392.6,1025.40004 394.733312,1031.06665 399,1035.2 C403.266688,1039.33335 409.533292,1041.4 417.8,1041.4 C427.13338,1041.4 435.733294,1039.00002 443.6,1034.2 C451.466706,1029.39998 458.06664,1023.13337 463.4,1015.4 L463.4,984.2 Z M661.6,867 C676.800076,867 690.133276,871.33329 701.6,880 C713.066724,888.66671 721.933302,901.133252 728.2,917.4 C734.466698,933.666748 737.6,952.733224 737.6,974.6 C737.6,1007.9335 730.200074,1034.13324 715.4,1053.2 C700.599926,1072.26676 680.133464,1081.8 654,1081.8 C636.66658,1081.8 621.200068,1076.73338 607.6,1066.6 L607.6,1150.2 C607.6,1157.93337 600.533404,1161.8 586.4,1161.8 L578.8,1161.8 C564.666596,1161.8 557.6,1157.93337 557.6,1150.2 L557.6,936.6 C557.6,918.733244 556.800008,905.733374 555.2,897.6 C553.599992,889.466626 552.8,884.466676 552.8,882.6 C552.8,878.866648 557.199956,876.00001 566,874 C574.800044,871.99999 582.5333,871 589.2,871 C593.466688,871 596.533324,872.866648 598.4,876.6 C600.266676,880.333352 601.666662,884.266646 602.6,888.4 C603.533338,892.533354 604.133332,895.399992 604.4,897 C610.800032,887.66662 618.99995,880.33336 629,875 C639.00005,869.66664 649.866608,867 661.6,867 Z M648,908.2 C640.266628,908.2 633.000034,910.466644 626.2,915 C619.399966,919.533356 613.200028,925.666628 607.6,933.4 L607.6,1029.8 C618.000052,1037.53337 629.8666,1041.4 643.2,1041.4 C672.000144,1041.13333 686.4,1019.26688 686.4,975.8 C686.4,953.933224 683.200032,937.200058 676.8,925.6 C670.399968,913.999942 660.800064,908.2 648,908.2 Z M875.8,867 C891.000076,867 904.333276,871.33329 915.8,880 C927.266724,888.66671 936.133302,901.133252 942.4,917.4 C948.666698,933.666748 951.8,952.733224 951.8,974.6 C951.8,1007.9335 944.400074,1034.13324 929.6,1053.2 C914.799926,1072.26676 894.333464,1081.8 868.2,1081.8 C850.86658,1081.8 835.400068,1076.73338 821.8,1066.6 L821.8,1150.2 C821.8,1157.93337 814.733404,1161.8 800.6,1161.8 L793,1161.8 C778.866596,1161.8 771.8,1157.93337 771.8,1150.2 L771.8,936.6 C771.8,918.733244 771.000008,905.733374 769.4,897.6 C767.799992,889.466626 767,884.466676 767,882.6 C767,878.866648 771.399956,876.00001 780.2,874 C789.000044,871.99999 796.7333,871 803.4,871 C807.666688,871 810.733324,872.866648 812.6,876.6 C814.466676,880.333352 815.866662,884.266646 816.8,888.4 C817.733338,892.533354 818.333332,895.399992 818.6,897 C825.000032,887.66662 833.19995,880.33336 843.2,875 C853.20005,869.66664 864.066608,867 875.8,867 Z M862.2,908.2 C854.466628,908.2 847.200034,910.466644 840.4,915 C833.599966,919.533356 827.400028,925.666628 821.8,933.4 L821.8,1029.8 C832.200052,1037.53337 844.0666,1041.4 857.4,1041.4 C886.200144,1041.13333 900.6,1019.26688 900.6,975.8 C900.6,953.933224 897.400032,937.200058 891,925.6 C884.599968,913.999942 875.000064,908.2 862.2,908.2 Z M1123.2,869 C1137.3334,869 1144.4,871.66664 1144.4,877 C1144.4,878.600008 1144,880.866652 1143.2,883.8 L1047.2,1153.4 C1045.06666,1159.00003 1038.13339,1161.8 1026.4,1161.8 L1019.6,1161.8 C1012.9333,1161.8 1007.93335,1161.13334 1004.6,1159.8 C1001.26665,1158.46666 999.6,1156.60001 999.6,1154.2 C999.6,1152.33332 1000.26666,1149.93335 1001.6,1147 L1029.6,1075 L962.4,883.4 C961.333328,880.73332 960.8,878.600008 960.8,877 C960.8,871.66664 967.999928,869 982.4,869 L992,869 C1003.46672,869 1010.13332,871.533308 1012,876.6 L1041.6,963 C1044.80002,972.600048 1048.79998,987.799896 1053.6,1008.6 L1054.8,1008.6 L1058.8,992.2 C1062.53335,977.266592 1065.19999,967.533356 1066.8,963 L1096.4,876.6 C1098.26668,871.533308 1104.93328,869 1116.4,869 L1123.2,869 Z M1260.6,799 C1285.13346,799 1306.73324,804.866608 1325.4,816.6 C1344.06676,828.333392 1353.4,850.599836 1353.4,883.4 C1353.4,906.333448 1348.00005,924.13327 1337.2,936.8 C1326.39995,949.46673 1314.26673,957.999978 1300.8,962.4 C1287.33327,966.800022 1275.26672,969 1264.6,969 L1215,969 L1215,1068.6 C1215,1076.0667 1207.9334,1079.8 1193.8,1079.8 L1184.2,1079.8 C1170.0666,1079.8 1163,1076.0667 1163,1068.6 L1163,813.4 C1163,808.333308 1164.13332,804.666678 1166.4,802.4 C1168.66668,800.133322 1172.33331,799 1177.4,799 L1260.6,799 Z M1215,843.4 L1215,924.2 L1260.2,924.2 C1270.60005,924.2 1279.86663,921.20003 1288,915.2 C1296.13337,909.19997 1300.2,898.600076 1300.2,883.4 C1300.2,868.73326 1296.06671,858.40003 1287.8,852.4 C1279.53329,846.39997 1269.66672,843.4 1258.2,843.4 L1215,843.4 Z M1402.8,777.8 C1416.9334,777.8 1424,781.533296 1424,789 L1424,1019.8 C1424,1027.80004 1425.39999,1033.46665 1428.2,1036.8 C1431.00001,1040.13335 1435.19997,1041.8 1440.8,1041.8 C1443.46668,1041.8 1445.99999,1041.46667 1448.4,1040.8 C1450.80001,1040.13333 1452.66666,1039.8 1454,1039.8 C1457.20002,1039.8 1459.79999,1043.19997 1461.8,1050 C1463.80001,1056.80003 1464.8,1061.79998 1464.8,1065 C1464.8,1076.20006 1453.20012,1081.8 1430,1081.8 C1412.93325,1081.8 1399.33338,1076.93338 1389.2,1067.2 C1379.06662,1057.46662 1374,1041.93344 1374,1020.6 L1374,789 C1374,781.533296 1381.0666,777.8 1395.2,777.8 L1402.8,777.8 Z M1555.4,867 C1583.66681,867 1604.6666,872.733276 1618.4,884.2 C1632.1334,895.666724 1639,911.666564 1639,932.2 L1639,1012.6 C1639,1031.00009 1639.79999,1044.33329 1641.4,1052.6 C1643.00001,1060.86671 1643.8,1065.93332 1643.8,1067.8 C1643.8,1071.53335 1639.40004,1074.39999 1630.6,1076.4 C1621.79996,1078.40001 1614.0667,1079.4 1607.4,1079.4 C1603.13331,1079.4 1600.06668,1077.46669 1598.2,1073.6 C1596.33332,1069.73331 1594.93334,1065.53336 1594,1061 C1593.06666,1056.46664 1592.46667,1053.40001 1592.2,1051.8 C1586.06664,1059.2667 1577.93338,1066.1333 1567.8,1072.4 C1557.66662,1078.6667 1545.13341,1081.8 1530.2,1081.8 C1509.93323,1081.8 1494.46672,1076.53339 1483.8,1066 C1473.13328,1055.46661 1467.8,1041.13342 1467.8,1023 C1467.8,973.933088 1508.1996,949.266668 1589,949 L1589,933.8 C1589,915.933244 1577.00012,907 1553,907 C1543.13328,907 1534.40004,908.133322 1526.8,910.4 C1519.19996,912.666678 1512.66669,915.066654 1507.2,917.6 C1501.73331,920.133346 1498.6,921.4 1497.8,921.4 C1494.33332,921.4 1490.40002,917.73337 1486,910.4 C1481.59998,903.06663 1479.4,897.533352 1479.4,893.8 C1479.4,889.533312 1482.79997,885.333354 1489.6,881.2 C1496.40003,877.066646 1505.66661,873.66668 1517.4,871 C1529.13339,868.33332 1541.79993,867 1555.4,867 Z M1589,984.2 C1566.86656,984.466668 1549.5334,987.066642 1537,992 C1524.4666,996.933358 1518.2,1005.6666 1518.2,1018.2 C1518.2,1025.40004 1520.33331,1031.06665 1524.6,1035.2 C1528.86669,1039.33335 1535.13329,1041.4 1543.4,1041.4 C1552.73338,1041.4 1561.33329,1039.00002 1569.2,1034.2 C1577.06671,1029.39998 1583.66664,1023.13337 1589,1015.4 L1589,984.2 Z M1788.4,867 C1829.2002,867 1849.6,888.599784 1849.6,931.8 L1849.6,1068.6 C1849.6,1076.0667 1842.5334,1079.8 1828.4,1079.8 L1820.8,1079.8 C1806.6666,1079.8 1799.6,1076.0667 1799.6,1068.6 L1799.6,938.6 C1799.6,918.5999 1789.6001,908.6 1769.6,908.6 C1761.86663,908.6 1754.60003,910.999976 1747.8,915.8 C1740.99997,920.600024 1735.33336,926.466632 1730.8,933.4 L1730.8,1068.6 C1730.8,1076.0667 1723.86674,1079.8 1710,1079.8 L1702,1079.8 C1688.13326,1079.8 1681.2,1076.0667 1681.2,1068.6 L1681.2,936.6 C1681.2,918.733244 1680.40001,905.733374 1678.8,897.6 C1677.19999,889.466626 1676.4,884.466676 1676.4,882.6 C1676.4,878.866648 1680.79996,876.00001 1689.6,874 C1698.40004,871.99999 1706.1333,871 1712.8,871 C1717.06669,871 1720.13332,872.866648 1722,876.6 C1723.86668,880.333352 1725.26666,884.266646 1726.2,888.4 C1727.13334,892.533354 1727.73333,895.399992 1728,897 C1735.20004,888.199956 1744.13328,881.000028 1754.8,875.4 C1765.46672,869.799972 1776.66661,867 1788.4,867 Z M1928.6,819 C1940.06672,819 1945.8,822.733296 1945.8,830.2 L1945.8,869.8 L1970.2,869.8 C1973.93335,869.8 1976.66666,871.13332 1978.4,873.8 C1980.13334,876.46668 1981,880.866636 1981,887 L1981,893 C1981,899.133364 1980.13334,903.53332 1978.4,906.2 C1976.66666,908.86668 1973.93335,910.2 1970.2,910.2 L1945.8,910.2 L1945.8,1019.8 C1945.8,1027.80004 1947.19999,1033.46665 1950,1036.8 C1952.80001,1040.13335 1956.99997,1041.8 1962.6,1041.8 C1965.26668,1041.8 1967.79999,1041.46667 1970.2,1040.8 C1972.60001,1040.13333 1974.46666,1039.8 1975.8,1039.8 C1979.00002,1039.8 1981.59999,1043.19997 1983.6,1050 C1985.60001,1056.80003 1986.6,1061.79998 1986.6,1065 C1986.6,1076.20006 1975.00012,1081.8 1951.8,1081.8 C1934.73325,1081.8 1921.13338,1076.93338 1911,1067.2 C1900.86662,1057.46662 1895.8,1041.93344 1895.8,1020.6 L1895.8,910.2 L1884.6,910.2 C1880.86665,910.2 1878.13334,908.86668 1876.4,906.2 C1874.66666,903.53332 1873.8,899.133364 1873.8,893 L1873.8,887 C1873.8,880.866636 1874.66666,876.46668 1876.4,873.8 C1878.13334,871.13332 1880.86665,869.8 1884.6,869.8 L1895.8,869.8 L1901,830.2 C1901.8,822.733296 1907.93328,819 1919.4,819 L1928.6,819 Z M2070.8,866.6 C2084.66674,866.6 2097.66661,868.533314 2109.8,872.4 C2121.93339,876.266686 2128,881.399968 2128,887.8 C2128,892.333356 2126.20002,898.133298 2122.6,905.2 C2118.99998,912.266702 2115.60002,915.8 2112.4,915.8 C2111.6,915.8 2107.8667,914.266682 2101.2,911.2 C2094.5333,908.133318 2086.53338,906.6 2077.2,906.6 C2069.19996,906.6 2062.80002,908.133318 2058,911.2 C2053.19998,914.266682 2050.8,918.733304 2050.8,924.6 C2050.8,930.200028 2052.46665,934.866648 2055.8,938.6 C2059.13335,942.333352 2063.06664,945.266656 2067.6,947.4 C2072.13336,949.533344 2079.86661,952.866644 2090.8,957.4 C2106.53341,963.266696 2118.06663,970.53329 2125.4,979.2 C2132.73337,987.86671 2136.4,1000.19992 2136.4,1016.2 C2136.4,1035.66676 2129.5334,1051.53327 2115.8,1063.8 C2102.0666,1076.06673 2083.73345,1082.2 2060.8,1082.2 C2050.13328,1082.2 2039.73338,1081.00001 2029.6,1078.6 C2019.46662,1076.19999 2011.20003,1072.93335 2004.8,1068.8 C1998.39997,1064.66665 1995.2,1060.33336 1995.2,1055.8 C1995.2,1051.53331 1997.46664,1046.00003 2002,1039.2 C2006.53336,1032.39997 2010.53332,1029 2014,1029 C2015.06667,1029 2017.99998,1030.26665 2022.8,1032.8 C2027.60002,1035.33335 2032.73331,1037.46666 2038.2,1039.2 C2043.66669,1040.93334 2049.86663,1041.8 2056.8,1041.8 C2076.26676,1041.8 2086,1034.33341 2086,1019.4 C2086,1012.19996 2083.20003,1006.60002 2077.6,1002.6 C2071.99997,998.59998 2062.66673,994.200024 2049.6,989.4 C2033.59992,984.333308 2021.33338,977.266712 2012.8,968.2 C2004.26662,959.133288 2000,946.200084 2000,929.4 C2000,910.199904 2006.4666,894.93339 2019.4,883.6 C2032.3334,872.26661 2049.46656,866.6 2070.8,866.6 Z" id="HappyPlants" fill="#1A1E1F"></path>
    </g>
</svg>